<?xml version="1.0" encoding="UTF-8"?>
<!-- Generator: visioncortex VTracer -->
<svg id="svg" version="1.1" xmlns="http://www.w3.org/2000/svg" style="display: block;" viewBox="0 0 3058 4096"><path d="M0,0 L8,0 L24,8 L34,17 L49,32 L60,46 L68,56 L74,66 L81,76 L92,94 L95,99 L105,118 L119,150 L125,165 L136,199 L142,223 L149,262 L151,279 L152,304 L152,352 L150,378 L148,390 L148,395 L163,411 L173,422 L179,430 L189,442 L199,456 L210,472 L222,492 L230,506 L244,532 L256,558 L268,587 L279,618 L288,648 L294,669 L302,704 L308,742 L311,774 L312,795 L312,844 L310,871 L306,899 L306,903 L322,895 L351,878 L364,870 L385,857 L415,837 L425,829 L440,819 L442,818 L448,818 L453,822 L459,838 L463,858 L465,873 L466,899 L465,922 L461,959 L455,995 L450,1021 L444,1046 L437,1071 L427,1101 L415,1132 L404,1158 L394,1179 L381,1202 L370,1220 L364,1228 L352,1244 L344,1254 L342,1254 L340,1258 L329,1270 L324,1275 L312,1287 L301,1296 L283,1309 L269,1318 L248,1330 L237,1335 L222,1341 L207,1345 L194,1347 L165,1347 L157,1364 L145,1385 L135,1400 L127,1411 L117,1424 L106,1437 L99,1445 L95,1450 L90,1455 L88,1455 L86,1459 L78,1467 L73,1472 L64,1481 L56,1488 L50,1494 L48,1494 L48,1496 L38,1504 L27,1513 L16,1522 L13,1523 L13,1525 L7,1529 L-11,1542 L-30,1555 L-40,1562 L-53,1571 L-60,1576 L-68,1580 L-69,1581 L-70,1596 L-71,1600 L-54,1600 L-38,1602 L-20,1607 L1,1616 L19,1626 L33,1636 L43,1644 L58,1657 L68,1666 L79,1675 L87,1683 L95,1690 L111,1705 L119,1713 L130,1722 L139,1731 L147,1738 L157,1748 L165,1755 L172,1763 L187,1777 L208,1798 L208,1800 L212,1802 L223,1814 L239,1831 L251,1843 L260,1854 L269,1864 L279,1877 L291,1894 L302,1911 L313,1930 L326,1953 L339,1977 L351,1999 L361,2018 L375,2047 L385,2070 L392,2084 L402,2107 L413,2132 L424,2159 L437,2190 L441,2200 L441,2202 L446,2204 L467,2217 L483,2229 L497,2241 L498,2241 L501,2214 L501,2182 L498,2152 L491,2113 L483,2083 L474,2054 L467,2033 L455,1997 L445,1965 L438,1939 L433,1913 L429,1885 L427,1859 L427,1833 L430,1803 L433,1784 L438,1761 L444,1739 L454,1710 L464,1686 L472,1670 L482,1651 L487,1644 L492,1635 L506,1614 L518,1598 L527,1587 L538,1575 L547,1565 L555,1557 L560,1552 L565,1546 L576,1537 L585,1530 L585,1528 L558,1519 L522,1507 L489,1497 L479,1493 L475,1486 L475,1481 L483,1473 L493,1466 L511,1453 L540,1436 L573,1419 L598,1408 L625,1398 L644,1392 L669,1385 L703,1377 L732,1372 L771,1368 L790,1367 L832,1367 L861,1369 L893,1372 L897,1374 L899,1377 L898,1386 L890,1397 L879,1409 L871,1419 L862,1430 L853,1441 L846,1450 L835,1464 L822,1482 L814,1494 L804,1509 L791,1530 L781,1547 L774,1559 L767,1573 L755,1595 L747,1611 L731,1644 L720,1669 L711,1689 L707,1695 L705,1696 L697,1696 L691,1693 L680,1675 L671,1658 L666,1647 L653,1615 L643,1590 L641,1587 L639,1587 L637,1591 L622,1607 L613,1617 L603,1631 L599,1636 L592,1646 L585,1657 L577,1670 L571,1680 L563,1696 L553,1718 L547,1734 L541,1753 L536,1772 L530,1804 L528,1828 L528,1859 L530,1880 L536,1913 L544,1942 L556,1979 L574,2027 L587,2067 L596,2096 L605,2133 L610,2165 L613,2198 L613,2258 L610,2288 L604,2322 L598,2346 L588,2375 L588,2380 L590,2383 L595,2400 L598,2413 L602,2447 L602,2477 L599,2493 L593,2510 L585,2526 L577,2540 L565,2553 L554,2562 L545,2568 L526,2576 L521,2588 L515,2599 L503,2615 L490,2628 L480,2635 L470,2641 L453,2647 L444,2649 L413,2649 L409,2648 L402,2648 L399,2649 L393,2658 L383,2668 L372,2675 L361,2680 L346,2684 L339,2685 L322,2685 L307,2682 L295,2677 L288,2677 L272,2683 L250,2690 L226,2696 L205,2699 L193,2700 L168,2701 L155,2701 L125,2699 L98,2695 L54,2684 L25,2674 L-1,2662 L-17,2654 L-32,2645 L-49,2634 L-65,2623 L-78,2613 L-89,2604 L-99,2595 L-106,2588 L-111,2589 L-125,2600 L-136,2609 L-153,2621 L-172,2632 L-183,2638 L-198,2647 L-212,2658 L-224,2668 L-236,2677 L-252,2689 L-263,2697 L-262,2701 L-254,2717 L-246,2733 L-236,2752 L-219,2781 L-209,2796 L-195,2817 L-194,2820 L-178,2822 L-164,2823 L-56,2823 L-55,2815 L-51,2806 L-44,2794 L-35,2784 L-28,2777 L-14,2768 L0,2762 L11,2759 L18,2758 L38,2758 L55,2762 L74,2772 L82,2778 L85,2780 L95,2779 L121,2776 L158,2776 L185,2780 L200,2784 L209,2783 L219,2782 L248,2788 L268,2794 L280,2800 L285,2805 L292,2813 L301,2829 L309,2846 L318,2871 L323,2890 L328,2917 L333,2959 L336,3005 L337,3027 L337,3060 L335,3118 L333,3154 L330,3186 L325,3218 L319,3244 L311,3271 L304,3291 L293,3316 L282,3337 L271,3354 L261,3368 L249,3382 L247,3385 L245,3385 L243,3389 L225,3407 L221,3412 L213,3419 L203,3427 L186,3440 L175,3447 L158,3458 L135,3470 L109,3481 L96,3485 L69,3491 L55,3493 L42,3494 L16,3494 L-8,3492 L-30,3488 L-43,3483 L-55,3474 L-59,3471 L-59,3469 L-61,3469 L-71,3456 L-82,3440 L-91,3424 L-96,3411 L-97,3407 L-97,3399 L-96,3389 L-102,3374 L-108,3353 L-111,3332 L-111,3315 L-108,3294 L-103,3273 L-97,3258 L-88,3239 L-80,3227 L-73,3218 L-67,3211 L-59,3204 L-51,3197 L-39,3188 L-29,3179 L-24,3170 L-23,3165 L-24,3157 L-24,3139 L-20,3124 L-12,3114 L-14,3110 L-21,3102 L-24,3095 L-25,3089 L-25,3072 L-38,3072 L-62,3070 L-78,3066 L-91,3061 L-102,3054 L-111,3044 L-116,3033 L-118,3025 L-118,3014 L-157,3014 L-190,3013 L-232,3010 L-259,3006 L-278,3002 L-298,2995 L-309,2989 L-323,2978 L-337,2964 L-346,2953 L-357,2941 L-364,2932 L-374,2920 L-385,2905 L-395,2892 L-405,2878 L-417,2861 L-429,2842 L-434,2842 L-445,2854 L-469,2878 L-476,2886 L-484,2896 L-496,2915 L-504,2928 L-518,2952 L-527,2968 L-534,2979 L-546,3000 L-556,3017 L-568,3038 L-581,3061 L-590,3078 L-596,3089 L-609,3112 L-623,3138 L-636,3160 L-628,3176 L-624,3186 L-620,3204 L-619,3209 L-619,3227 L-622,3243 L-630,3259 L-637,3268 L-646,3276 L-655,3282 L-673,3290 L-680,3316 L-685,3331 L-690,3348 L-704,3384 L-719,3417 L-728,3434 L-740,3453 L-749,3466 L-762,3482 L-770,3491 L-773,3494 L-776,3511 L-783,3523 L-795,3536 L-804,3546 L-812,3554 L-820,3561 L-830,3568 L-840,3573 L-851,3577 L-870,3578 L-889,3577 L-921,3569 L-936,3564 L-949,3560 L-977,3549 L-996,3539 L-1023,3524 L-1037,3515 L-1050,3506 L-1066,3495 L-1079,3485 L-1095,3473 L-1109,3462 L-1122,3451 L-1135,3439 L-1143,3432 L-1153,3423 L-1164,3414 L-1177,3403 L-1185,3396 L-1195,3387 L-1209,3375 L-1220,3364 L-1231,3355 L-1246,3341 L-1256,3332 L-1269,3320 L-1271,3319 L-1271,3317 L-1275,3315 L-1284,3306 L-1292,3299 L-1301,3289 L-1306,3285 L-1313,3277 L-1325,3264 L-1334,3253 L-1346,3240 L-1357,3226 L-1371,3207 L-1384,3189 L-1397,3168 L-1412,3142 L-1422,3123 L-1430,3107 L-1446,3071 L-1452,3054 L-1458,3036 L-1463,3015 L-1466,2997 L-1467,2985 L-1467,2966 L-1465,2950 L-1460,2936 L-1453,2923 L-1443,2908 L-1432,2895 L-1420,2882 L-1406,2870 L-1389,2861 L-1373,2857 L-1362,2856 L-1348,2846 L-1332,2837 L-1321,2832 L-1300,2825 L-1282,2821 L-1264,2819 L-1234,2819 L-1217,2821 L-1195,2826 L-1171,2835 L-1150,2845 L-1132,2856 L-1122,2863 L-1109,2873 L-1098,2882 L-1087,2893 L-1082,2897 L-1075,2905 L-1068,2913 L-1055,2930 L-1043,2942 L-1029,2953 L-1011,2955 L-1000,2959 L-991,2965 L-984,2972 L-978,2980 L-959,2980 L-943,2986 L-936,2991 L-928,2989 L-918,2988 L-909,2963 L-898,2939 L-889,2925 L-880,2915 L-869,2908 L-855,2903 L-849,2902 L-822,2902 L-799,2907 L-779,2915 L-775,2917 L-771,2917 L-758,2894 L-746,2876 L-738,2865 L-724,2843 L-716,2832 L-708,2820 L-698,2806 L-690,2794 L-682,2783 L-675,2772 L-663,2756 L-653,2742 L-645,2732 L-637,2723 L-629,2716 L-613,2701 L-602,2692 L-591,2681 L-583,2674 L-571,2663 L-557,2651 L-546,2642 L-547,2637 L-556,2621 L-571,2588 L-579,2568 L-590,2535 L-595,2516 L-602,2496 L-614,2474 L-620,2461 L-626,2446 L-632,2427 L-638,2402 L-641,2383 L-642,2367 L-642,2329 L-640,2305 L-635,2277 L-626,2239 L-614,2203 L-602,2174 L-595,2158 L-584,2135 L-572,2113 L-561,2093 L-551,2076 L-560,2083 L-566,2088 L-571,2093 L-579,2101 L-590,2110 L-609,2123 L-622,2131 L-638,2139 L-660,2150 L-676,2158 L-689,2164 L-715,2175 L-732,2182 L-758,2192 L-799,2207 L-821,2214 L-862,2226 L-892,2233 L-902,2235 L-906,2235 L-909,2244 L-916,2258 L-926,2273 L-944,2291 L-958,2301 L-966,2306 L-982,2314 L-987,2315 L-974,2350 L-967,2371 L-957,2398 L-944,2436 L-937,2456 L-928,2480 L-918,2510 L-906,2544 L-898,2566 L-890,2590 L-881,2615 L-872,2640 L-862,2670 L-851,2699 L-842,2725 L-836,2741 L-829,2761 L-822,2781 L-819,2794 L-819,2804 L-821,2812 L-827,2822 L-836,2832 L-850,2841 L-859,2844 L-865,2845 L-883,2845 L-899,2840 L-907,2834 L-913,2827 L-919,2815 L-931,2781 L-940,2755 L-958,2705 L-971,2669 L-985,2628 L-999,2589 L-1014,2545 L-1021,2526 L-1032,2493 L-1047,2450 L-1057,2422 L-1067,2393 L-1075,2369 L-1079,2358 L-1079,2356 L-1111,2366 L-1128,2369 L-1154,2369 L-1170,2366 L-1185,2361 L-1200,2353 L-1211,2344 L-1219,2334 L-1227,2320 L-1232,2306 L-1234,2298 L-1234,2276 L-1251,2271 L-1267,2263 L-1274,2258 L-1281,2250 L-1288,2242 L-1296,2228 L-1303,2209 L-1306,2191 L-1306,2178 L-1302,2160 L-1294,2142 L-1292,2138 L-1297,2136 L-1310,2123 L-1320,2109 L-1326,2097 L-1329,2087 L-1330,2080 L-1330,2062 L-1327,2048 L-1321,2032 L-1314,2020 L-1302,2006 L-1289,1993 L-1281,1986 L-1266,1974 L-1250,1964 L-1235,1956 L-1226,1952 L-1227,1947 L-1239,1912 L-1249,1881 L-1250,1875 L-1258,1874 L-1272,1867 L-1279,1859 L-1283,1851 L-1283,1838 L-1280,1828 L-1277,1824 L-1278,1817 L-1283,1798 L-1292,1799 L-1322,1804 L-1336,1806 L-1353,1807 L-1376,1807 L-1398,1805 L-1417,1801 L-1435,1796 L-1450,1790 L-1469,1780 L-1485,1769 L-1498,1758 L-1511,1745 L-1522,1730 L-1532,1712 L-1541,1693 L-1550,1669 L-1554,1654 L-1559,1631 L-1562,1607 L-1565,1568 L-1567,1517 L-1570,1478 L-1573,1455 L-1576,1435 L-1576,1431 L-1580,1433 L-1587,1441 L-1605,1459 L-1619,1470 L-1621,1471 L-1628,1471 L-1634,1466 L-1634,1450 L-1630,1404 L-1628,1373 L-1627,1361 L-1626,1326 L-1626,1234 L-1623,1231 L-1616,1233 L-1608,1239 L-1608,1241 L-1605,1242 L-1605,1244 L-1602,1245 L-1593,1256 L-1584,1267 L-1573,1283 L-1561,1302 L-1552,1318 L-1541,1340 L-1530,1365 L-1518,1399 L-1510,1427 L-1503,1454 L-1497,1488 L-1488,1555 L-1484,1585 L-1478,1612 L-1469,1639 L-1458,1657 L-1449,1669 L-1436,1682 L-1423,1691 L-1413,1697 L-1397,1703 L-1383,1706 L-1352,1706 L-1339,1704 L-1323,1699 L-1314,1693 L-1315,1685 L-1324,1648 L-1334,1612 L-1341,1591 L-1358,1536 L-1364,1517 L-1369,1500 L-1379,1469 L-1391,1433 L-1409,1378 L-1424,1330 L-1437,1292 L-1451,1249 L-1461,1217 L-1462,1211 L-1467,1216 L-1481,1231 L-1490,1240 L-1502,1249 L-1510,1250 L-1514,1244 L-1516,1234 L-1517,1218 L-1517,1155 L-1515,1087 L-1513,1027 L-1510,992 L-1506,976 L-1503,973 L-1498,974 L-1490,981 L-1483,989 L-1472,1001 L-1463,1012 L-1451,1026 L-1442,1037 L-1431,1050 L-1421,1063 L-1410,1077 L-1398,1091 L-1385,1108 L-1375,1121 L-1362,1137 L-1349,1155 L-1335,1174 L-1331,1181 L-1330,1189 L-1335,1193 L-1346,1193 L-1362,1191 L-1387,1187 L-1391,1187 L-1388,1196 L-1376,1231 L-1366,1258 L-1356,1287 L-1342,1328 L-1327,1371 L-1316,1402 L-1305,1432 L-1296,1458 L-1282,1496 L-1270,1530 L-1253,1576 L-1246,1596 L-1233,1629 L-1221,1654 L-1219,1659 L-1201,1653 L-1183,1643 L-1172,1635 L-1157,1621 L-1149,1611 L-1141,1597 L-1134,1578 L-1130,1556 L-1130,1535 L-1133,1516 L-1140,1492 L-1148,1472 L-1156,1456 L-1164,1441 L-1178,1417 L-1191,1395 L-1201,1377 L-1210,1360 L-1221,1337 L-1226,1326 L-1236,1301 L-1248,1265 L-1257,1229 L-1263,1197 L-1266,1172 L-1266,1124 L-1262,1104 L-1259,1099 L-1255,1100 L-1245,1111 L-1236,1123 L-1224,1138 L-1215,1150 L-1199,1171 L-1188,1184 L-1179,1195 L-1168,1207 L-1161,1215 L-1152,1225 L-1137,1241 L-1130,1249 L-1128,1253 L-1126,1253 L-1119,1261 L-1110,1272 L-1109,1274 L-1109,1282 L-1113,1285 L-1117,1286 L-1129,1286 L-1172,1282 L-1165,1296 L-1157,1311 L-1151,1323 L-1138,1344 L-1126,1362 L-1114,1379 L-1106,1390 L-1095,1406 L-1087,1418 L-1076,1436 L-1067,1452 L-1055,1477 L-1048,1497 L-1041,1522 L-1037,1543 L-1036,1550 L-1036,1580 L-1039,1600 L-1045,1621 L-1050,1635 L-1060,1654 L-1070,1670 L-1080,1683 L-1092,1697 L-1099,1704 L-1107,1711 L-1120,1722 L-1137,1734 L-1154,1744 L-1177,1756 L-1174,1767 L-1168,1785 L-1158,1789 L-1149,1797 L-1144,1807 L-1144,1821 L-1148,1832 L-1153,1839 L-1152,1847 L-1138,1888 L-1123,1929 L-1121,1934 L-1119,1935 L-1117,1931 L-1109,1924 L-1098,1918 L-1081,1912 L-1067,1909 L-1040,1909 L-1021,1914 L-1002,1922 L-987,1930 L-977,1938 L-966,1947 L-958,1955 L-947,1969 L-935,1989 L-928,2003 L-923,2019 L-906,2018 L-871,2013 L-829,2004 L-804,1998 L-771,1989 L-741,1979 L-714,1968 L-692,1958 L-670,1946 L-658,1938 L-647,1929 L-637,1920 L-623,1908 L-614,1899 L-606,1892 L-599,1885 L-591,1878 L-541,1828 L-534,1820 L-523,1807 L-513,1795 L-505,1785 L-497,1776 L-489,1766 L-479,1753 L-470,1742 L-459,1729 L-441,1711 L-437,1706 L-432,1702 L-431,1700 L-444,1701 L-496,1701 L-528,1697 L-556,1692 L-580,1686 L-601,1680 L-617,1675 L-635,1669 L-651,1663 L-677,1652 L-703,1640 L-728,1628 L-742,1620 L-756,1613 L-779,1599 L-794,1589 L-807,1580 L-824,1567 L-838,1556 L-848,1547 L-858,1538 L-876,1520 L-883,1512 L-893,1500 L-905,1482 L-913,1468 L-921,1452 L-928,1435 L-934,1414 L-937,1398 L-938,1388 L-938,1364 L-936,1348 L-932,1330 L-930,1320 L-941,1312 L-953,1301 L-960,1294 L-967,1286 L-972,1280 L-972,1278 L-974,1278 L-984,1264 L-993,1251 L-1007,1229 L-1021,1202 L-1031,1179 L-1036,1167 L-1044,1147 L-1053,1119 L-1060,1094 L-1067,1065 L-1073,1029 L-1075,1009 L-1075,976 L-1073,966 L-1069,959 L-1066,957 L-1060,957 L-1050,963 L-1036,974 L-1034,975 L-1034,977 L-1030,979 L-1017,990 L-1002,1000 L-984,1010 L-974,1016 L-971,1017 L-975,993 L-979,958 L-982,926 L-994,889 L-1001,861 L-1005,836 L-1007,811 L-1007,796 L-1004,767 L-998,743 L-992,726 L-982,707 L-972,691 L-960,677 L-945,662 L-942,653 L-936,633 L-929,616 L-928,613 L-935,605 L-944,595 L-956,579 L-967,561 L-977,543 L-989,517 L-999,491 L-1006,467 L-1011,442 L-1013,429 L-1015,396 L-1015,363 L-1012,325 L-1007,295 L-1000,268 L-992,244 L-981,218 L-971,197 L-958,175 L-945,159 L-937,152 L-928,149 L-925,150 L-921,165 L-915,191 L-907,217 L-897,246 L-886,271 L-874,293 L-866,305 L-855,319 L-854,322 L-852,322 L-845,330 L-834,341 L-820,352 L-803,364 L-788,373 L-774,380 L-768,383 L-759,376 L-744,363 L-731,353 L-718,343 L-701,331 L-679,316 L-660,304 L-650,298 L-634,290 L-611,278 L-582,265 L-554,254 L-518,242 L-496,236 L-477,231 L-447,225 L-413,219 L-380,215 L-361,213 L-340,212 L-273,212 L-252,213 L-222,216 L-195,220 L-151,228 L-126,235 L-105,242 L-94,248 L-90,248 L-82,238 L-75,227 L-64,210 L-58,200 L-48,181 L-37,156 L-29,136 L-23,116 L-17,92 L-12,64 L-7,30 L-4,8 L-1,1 Z M5,1866 L6,1887 L8,1911 L9,1936 L10,1946 L11,1972 L13,2044 L14,2103 L14,2209 L13,2242 L10,2291 L8,2321 L6,2335 L4,2353 L0,2378 L-4,2399 L-13,2430 L-21,2453 L-23,2459 L-17,2469 L-11,2477 L-2,2488 L3,2494 L7,2498 L9,2498 L11,2502 L15,2506 L17,2506 L19,2510 L29,2519 L44,2531 L58,2540 L67,2546 L77,2551 L87,2556 L91,2556 L91,2558 L107,2564 L121,2569 L132,2572 L153,2575 L193,2575 L217,2572 L226,2569 L226,2544 L217,2540 L208,2536 L189,2524 L181,2517 L179,2517 L177,2513 L167,2500 L160,2488 L154,2470 L151,2454 L150,2441 L150,2419 L152,2401 L157,2382 L168,2359 L173,2352 L177,2345 L190,2329 L201,2316 L206,2309 L211,2304 L214,2301 L214,2299 L218,2297 L225,2289 L237,2277 L243,2273 L243,2271 L246,2270 L242,2253 L236,2232 L227,2204 L224,2194 L214,2164 L210,2154 L204,2137 L200,2128 L194,2112 L185,2089 L178,2074 L170,2055 L164,2042 L155,2022 L149,2012 L140,1999 L132,1989 L130,1989 L129,1986 L127,1986 L125,1982 L113,1970 L110,1966 L108,1966 L106,1962 L99,1955 L92,1947 L81,1936 L76,1931 L63,1918 L55,1911 L48,1904 L46,1904 L45,1901 L37,1894 L33,1892 L33,1890 L31,1890 L30,1887 L28,1887 L28,1885 L19,1878 L15,1873 L12,1873 L11,1870 L7,1866 Z " transform="translate(1919,202)" style="fill: #070606;"/><path d="M0,0 L4,1 L17,17 L24,25 L26,31 L28,43 L30,49 L35,65 L42,92 L47,116 L50,136 L52,157 L52,197 L50,224 L47,244 L42,268 L36,289 L26,318 L13,347 L3,366 L-5,380 L-9,385 L-16,396 L-26,409 L-38,423 L-50,435 L-64,445 L-73,449 L-87,452 L-119,452 L-131,449 L-148,442 L-150,441 L-150,451 L-145,463 L-137,473 L-128,482 L-115,492 L-104,499 L-95,504 L-91,508 L-81,514 L-72,520 L-60,526 L-54,529 L-54,531 L-50,532 L-38,537 L-25,542 L-15,545 L-8,548 L17,555 L22,559 L32,577 L45,607 L55,635 L60,653 L62,658 L68,685 L74,721 L79,761 L80,776 L80,859 L77,893 L74,911 L71,934 L67,954 L63,969 L54,1004 L52,1011 L42,1044 L39,1051 L34,1065 L30,1073 L21,1094 L12,1113 L2,1132 L-5,1145 L-13,1159 L-22,1173 L-29,1184 L-32,1188 L-32,1191 L-22,1198 L-16,1203 L-10,1212 L-2,1228 L3,1241 L7,1257 L8,1263 L8,1294 L3,1315 L-3,1331 L-11,1345 L-15,1353 L-25,1369 L-38,1387 L-49,1400 L-58,1411 L-74,1427 L-78,1432 L-86,1439 L-96,1449 L-104,1456 L-115,1466 L-129,1477 L-144,1489 L-162,1502 L-174,1510 L-184,1517 L-195,1523 L-216,1535 L-232,1544 L-255,1556 L-274,1566 L-290,1574 L-301,1579 L-317,1585 L-336,1593 L-353,1598 L-391,1611 L-411,1617 L-429,1622 L-448,1627 L-456,1629 L-462,1631 L-479,1634 L-489,1636 L-510,1636 L-526,1634 L-537,1632 L-548,1631 L-572,1626 L-602,1619 L-629,1611 L-637,1608 L-655,1601 L-666,1596 L-684,1589 L-699,1582 L-710,1577 L-714,1574 L-725,1570 L-729,1567 L-736,1564 L-742,1560 L-749,1557 L-766,1547 L-784,1536 L-799,1526 L-810,1518 L-823,1508 L-837,1496 L-848,1486 L-856,1479 L-872,1463 L-879,1455 L-891,1439 L-901,1424 L-909,1410 L-919,1387 L-924,1370 L-927,1352 L-927,1319 L-922,1294 L-919,1285 L-913,1269 L-906,1255 L-903,1248 L-897,1239 L-896,1238 L-896,1231 L-898,1226 L-904,1201 L-908,1188 L-912,1178 L-917,1161 L-926,1134 L-933,1109 L-941,1080 L-946,1056 L-952,1030 L-955,1019 L-958,1004 L-962,979 L-964,962 L-965,960 L-970,925 L-973,894 L-976,878 L-981,861 L-987,841 L-992,820 L-996,799 L-997,793 L-997,752 L-993,726 L-987,706 L-979,688 L-968,670 L-959,659 L-952,652 L-940,643 L-926,636 L-915,633 L-887,633 L-875,636 L-862,640 L-841,650 L-828,658 L-817,666 L-804,676 L-800,678 L-802,673 L-809,664 L-823,650 L-839,638 L-844,635 L-844,633 L-850,631 L-863,624 L-882,618 L-899,615 L-919,615 L-929,617 L-933,617 L-932,610 L-926,595 L-921,585 L-916,571 L-908,555 L-891,523 L-877,500 L-861,476 L-848,458 L-834,440 L-827,431 L-818,421 L-811,413 L-802,403 L-791,391 L-778,378 L-770,371 L-757,359 L-746,350 L-731,338 L-723,332 L-708,321 L-691,309 L-676,299 L-657,288 L-641,279 L-618,268 L-599,259 L-592,256 L-568,246 L-558,242 L-545,238 L-530,233 L-502,226 L-487,222 L-461,217 L-450,215 L-427,211 L-391,207 L-366,204 L-342,203 L-290,203 L-227,209 L-201,213 L-188,215 L-155,222 L-140,227 L-128,230 L-125,232 L-126,237 L-134,245 L-141,253 L-156,269 L-164,276 L-179,289 L-187,299 L-192,308 L-193,311 L-195,311 L-197,321 L-199,328 L-200,337 L-200,358 L-196,382 L-190,398 L-184,406 L-178,410 L-182,397 L-184,384 L-184,351 L-179,326 L-175,318 L-161,305 L-147,294 L-132,280 L-118,266 L-111,258 L-100,245 L-91,234 L-79,219 L-66,201 L-56,184 L-46,167 L-34,142 L-29,130 L-23,114 L-19,104 L-14,84 L-10,69 L-6,48 L-2,19 L-1,1 Z " transform="translate(1936,239)" style="fill: #D73630;"/><path d="M0,0 L31,0 L57,5 L77,10 L87,11 L101,23 L112,32 L125,44 L139,56 L153,69 L164,78 L180,93 L195,107 L211,122 L223,134 L231,141 L259,169 L266,177 L282,194 L294,208 L303,218 L313,231 L321,240 L331,255 L339,268 L354,294 L367,318 L378,338 L386,354 L395,371 L406,394 L416,415 L431,449 L443,476 L448,488 L460,515 L471,542 L476,554 L484,561 L501,572 L514,581 L527,591 L540,603 L548,610 L548,612 L552,614 L561,624 L569,635 L579,648 L585,657 L597,676 L604,688 L611,705 L615,713 L620,728 L625,740 L628,755 L631,769 L632,777 L632,813 L628,831 L624,840 L616,856 L606,869 L601,875 L589,883 L588,884 L583,884 L582,855 L581,842 L576,823 L569,807 L566,802 L564,801 L565,809 L565,826 L561,837 L554,848 L546,858 L535,868 L522,875 L518,876 L498,876 L488,873 L483,869 L476,857 L468,847 L468,845 L465,845 L465,864 L457,881 L449,891 L441,899 L427,907 L424,908 L406,908 L396,904 L386,895 L379,880 L362,839 L353,823 L345,812 L337,801 L325,788 L314,777 L302,768 L292,762 L271,754 L270,753 L270,740 L275,722 L285,703 L294,690 L302,679 L313,665 L321,654 L329,643 L338,631 L347,618 L352,607 L355,595 L355,584 L346,555 L340,534 L328,499 L315,462 L307,442 L300,424 L295,413 L286,390 L280,377 L274,361 L267,344 L259,328 L248,312 L233,296 L225,288 L225,286 L223,286 L218,280 L210,273 L198,261 L190,254 L180,245 L168,234 L149,220 L135,208 L121,196 L113,190 L99,179 L84,168 L68,156 L47,143 L32,135 L10,126 L0,122 L-11,117 L-21,114 L-28,111 L-36,109 L-41,107 L-39,112 L-34,169 L-31,193 L-28,230 L-26,262 L-23,339 L-23,397 L-26,464 L-32,539 L-35,565 L-40,604 L-47,644 L-52,668 L-54,674 L-56,684 L-62,707 L-72,737 L-82,762 L-87,773 L-95,789 L-100,798 L-105,807 L-113,822 L-121,834 L-124,839 L-134,853 L-142,863 L-154,877 L-165,888 L-173,894 L-186,904 L-199,914 L-213,925 L-229,938 L-242,949 L-253,958 L-267,970 L-277,978 L-293,991 L-310,1005 L-324,1017 L-337,1028 L-351,1040 L-361,1049 L-372,1058 L-386,1070 L-401,1083 L-416,1096 L-426,1105 L-437,1114 L-446,1123 L-454,1130 L-476,1152 L-485,1163 L-496,1178 L-501,1186 L-513,1204 L-524,1221 L-533,1234 L-548,1258 L-561,1278 L-576,1302 L-590,1325 L-607,1353 L-613,1363 L-621,1376 L-628,1388 L-630,1388 L-632,1373 L-639,1352 L-646,1340 L-655,1329 L-656,1326 L-658,1326 L-663,1315 L-667,1304 L-675,1292 L-681,1284 L-683,1283 L-683,1281 L-687,1279 L-695,1273 L-694,1269 L-687,1259 L-669,1232 L-658,1216 L-646,1199 L-636,1184 L-615,1153 L-600,1131 L-588,1114 L-581,1105 L-573,1095 L-566,1088 L-559,1080 L-551,1072 L-546,1067 L-536,1058 L-519,1042 L-511,1035 L-501,1026 L-486,1012 L-474,1001 L-466,994 L-452,982 L-438,970 L-424,959 L-414,950 L-400,939 L-384,926 L-372,917 L-364,911 L-350,901 L-333,889 L-323,882 L-313,875 L-295,862 L-284,855 L-273,848 L-263,841 L-262,839 L-271,840 L-291,846 L-300,849 L-306,850 L-349,850 L-385,848 L-401,845 L-414,841 L-423,838 L-433,834 L-447,828 L-452,825 L-459,822 L-474,813 L-488,802 L-498,793 L-515,776 L-524,765 L-532,752 L-535,746 L-536,742 L-536,752 L-532,775 L-528,791 L-525,801 L-522,811 L-520,816 L-521,819 L-525,814 L-533,798 L-540,783 L-546,765 L-551,748 L-555,727 L-557,712 L-557,671 L-556,653 L-552,625 L-545,594 L-538,568 L-532,551 L-527,539 L-518,517 L-513,506 L-504,487 L-494,468 L-479,440 L-466,416 L-457,400 L-449,384 L-433,355 L-425,339 L-417,322 L-412,310 L-409,301 L-405,290 L-402,281 L-396,260 L-391,242 L-384,218 L-379,198 L-375,184 L-373,172 L-370,163 L-366,146 L-359,117 L-356,115 L-356,131 L-357,148 L-342,151 L-327,154 L-312,155 L-293,152 L-261,144 L-235,136 L-221,131 L-203,124 L-188,117 L-173,109 L-159,102 L-143,92 L-134,87 L-127,82 L-121,79 L-112,73 L-93,60 L-82,52 L-69,42 L-58,33 L-42,20 L-30,12 L-14,4 Z M-520,819 Z " transform="translate(1863,1863)" style="fill: #D8352F;"/><path d="M0,0 L3,3 L4,7 L6,7 L14,19 L20,28 L26,39 L36,58 L44,75 L49,87 L55,103 L59,113 L65,132 L68,140 L73,159 L76,175 L80,199 L83,230 L83,289 L80,316 L75,343 L73,355 L70,363 L67,377 L55,413 L51,422 L43,445 L39,460 L48,457 L55,452 L64,440 L72,427 L77,418 L85,402 L90,391 L96,370 L97,366 L101,368 L113,380 L126,397 L136,411 L147,429 L159,450 L173,477 L184,500 L196,528 L200,540 L204,550 L214,580 L219,597 L224,616 L228,632 L233,656 L235,672 L238,690 L241,720 L242,735 L242,796 L240,826 L237,849 L235,857 L231,860 L220,866 L215,870 L208,873 L198,879 L192,884 L184,890 L171,900 L161,908 L135,934 L128,943 L123,949 L116,958 L113,961 L108,970 L97,987 L92,998 L87,1010 L84,1016 L84,1033 L86,1034 L96,1015 L107,999 L121,980 L130,970 L137,962 L163,936 L173,928 L186,918 L209,902 L222,894 L238,886 L246,881 L265,870 L281,862 L289,857 L294,855 L310,845 L328,834 L339,827 L354,817 L375,803 L392,791 L394,789 L397,789 L398,801 L398,853 L393,899 L389,918 L386,934 L374,983 L368,1003 L360,1026 L356,1036 L348,1057 L345,1064 L334,1088 L322,1111 L310,1131 L298,1147 L296,1152 L288,1160 L286,1165 L275,1176 L268,1184 L252,1199 L241,1208 L225,1220 L210,1230 L202,1234 L193,1240 L187,1243 L182,1246 L171,1249 L163,1252 L151,1255 L122,1255 L103,1251 L91,1247 L77,1237 L70,1234 L63,1230 L57,1229 L58,1237 L60,1239 L66,1256 L67,1260 L67,1303 L65,1314 L62,1323 L54,1339 L46,1350 L36,1363 L23,1377 L16,1385 L4,1396 L-7,1406 L-17,1414 L-24,1420 L-35,1429 L-51,1442 L-64,1452 L-74,1459 L-76,1459 L-76,1461 L-83,1465 L-92,1471 L-110,1482 L-124,1491 L-141,1501 L-155,1509 L-172,1517 L-187,1525 L-204,1533 L-207,1533 L-207,1535 L-215,1538 L-226,1543 L-235,1546 L-238,1546 L-238,1548 L-245,1549 L-245,1551 L-261,1556 L-273,1561 L-281,1562 L-281,1564 L-296,1568 L-306,1572 L-316,1575 L-323,1578 L-353,1586 L-370,1590 L-383,1593 L-389,1595 L-414,1599 L-427,1602 L-457,1606 L-460,1607 L-473,1608 L-477,1609 L-493,1610 L-541,1610 L-543,1608 L-513,1608 L-493,1604 L-483,1602 L-478,1600 L-457,1595 L-443,1591 L-435,1589 L-410,1581 L-373,1569 L-352,1562 L-338,1556 L-325,1551 L-303,1541 L-289,1533 L-273,1525 L-252,1514 L-229,1501 L-211,1490 L-202,1485 L-189,1476 L-171,1463 L-158,1453 L-141,1439 L-133,1432 L-123,1423 L-113,1414 L-104,1405 L-99,1400 L-82,1383 L-73,1372 L-62,1359 L-46,1336 L-37,1321 L-29,1305 L-24,1293 L-20,1280 L-17,1267 L-17,1236 L-21,1218 L-24,1208 L-29,1196 L-38,1180 L-43,1174 L-57,1164 L-56,1160 L-44,1141 L-32,1122 L-26,1110 L-16,1092 L-5,1069 L4,1049 L8,1039 L13,1028 L16,1018 L20,1008 L27,984 L29,977 L41,929 L43,920 L47,901 L51,870 L52,866 L55,832 L55,749 L53,726 L48,686 L41,648 L36,627 L33,618 L24,591 L14,566 L3,542 L-4,531 L-7,529 L-32,522 L-45,517 L-60,512 L-69,508 L-78,504 L-78,502 L-83,501 L-93,495 L-100,491 L-113,483 L-119,479 L-119,477 L-124,475 L-139,466 L-149,458 L-159,449 L-168,439 L-172,432 L-175,423 L-174,414 L-165,417 L-152,422 L-143,424 L-111,424 L-97,421 L-85,415 L-72,405 L-59,392 L-51,382 L-41,369 L-32,355 L-26,346 L-16,328 L-6,307 L2,288 L14,252 L18,236 L22,217 L26,188 L27,170 L27,130 L25,109 L20,78 L12,45 L7,28 L4,17 L2,11 Z " transform="translate(1960,266)" style="fill: #7B191A;"/><path d="M0,0 L15,0 L33,3 L53,11 L69,20 L82,30 L92,39 L104,51 L114,64 L124,80 L133,96 L140,111 L151,141 L158,167 L163,194 L167,221 L169,244 L169,302 L165,337 L158,374 L151,399 L143,423 L139,433 L129,457 L117,480 L110,491 L101,504 L94,507 L82,511 L70,516 L55,523 L38,532 L21,543 L9,552 L-1,560 L-15,572 L-25,577 L-35,580 L-64,580 L-85,575 L-97,570 L-114,561 L-127,552 L-140,540 L-150,529 L-160,516 L-170,501 L-181,481 L-189,462 L-194,448 L-199,433 L-207,402 L-211,381 L-214,357 L-215,341 L-215,297 L-213,265 L-210,241 L-203,205 L-197,180 L-191,173 L-180,164 L-165,149 L-163,149 L-163,147 L-158,142 L-147,131 L-140,123 L-131,113 L-123,103 L-121,103 L-119,99 L-108,87 L-96,74 L-61,39 L-50,30 L-36,18 L-15,4 L-7,1 Z " transform="translate(1621,915)" style="fill: #FEFEFE;"/><path d="M0,0 L4,2 L11,12 L20,22 L29,33 L40,47 L50,60 L62,76 L72,89 L83,102 L93,115 L106,132 L115,143 L128,161 L135,170 L137,172 L137,175 L119,174 L98,170 L95,169 L86,169 L83,172 L83,182 L97,225 L101,238 L104,245 L110,261 L116,278 L119,288 L123,298 L136,338 L140,348 L148,372 L154,388 L161,407 L165,420 L169,430 L173,443 L176,450 L182,467 L187,481 L193,496 L196,506 L200,516 L204,529 L209,541 L213,552 L219,567 L225,583 L230,598 L235,610 L240,622 L249,642 L262,665 L267,673 L279,673 L291,671 L308,664 L323,656 L334,648 L344,640 L352,632 L363,617 L371,603 L377,587 L380,578 L383,564 L384,552 L384,538 L381,515 L373,486 L365,466 L357,449 L345,427 L330,401 L317,379 L309,365 L301,349 L293,333 L290,328 L284,312 L280,304 L274,288 L271,281 L264,258 L258,237 L254,221 L250,198 L246,172 L244,150 L244,135 L248,135 L254,145 L265,160 L275,174 L283,184 L289,191 L298,202 L306,211 L313,219 L326,233 L333,241 L353,261 L356,262 L358,267 L352,266 L341,264 L311,264 L305,269 L305,277 L307,282 L309,292 L314,303 L319,315 L326,328 L331,336 L336,345 L336,347 L338,347 L342,355 L359,381 L372,400 L386,421 L398,440 L404,450 L409,459 L415,470 L415,474 L417,474 L421,484 L424,494 L426,499 L432,522 L436,542 L437,549 L437,580 L434,598 L428,618 L420,634 L409,653 L400,665 L388,678 L373,693 L362,702 L343,716 L333,722 L321,728 L303,738 L297,741 L297,754 L304,782 L309,795 L314,800 L320,804 L327,807 L332,812 L329,820 L323,827 L310,836 L293,845 L266,852 L258,853 L243,853 L234,850 L233,849 L233,840 L236,829 L236,813 L231,797 L226,786 L225,780 L213,777 L201,777 L187,780 L168,783 L150,785 L124,785 L95,782 L72,777 L59,772 L50,769 L50,767 L46,766 L38,762 L26,754 L12,743 L-3,728 L-14,713 L-22,698 L-26,688 L-31,676 L-38,657 L-44,628 L-48,602 L-51,564 L-52,538 L-54,508 L-56,486 L-59,461 L-65,432 L-69,419 L-73,412 L-76,410 L-84,410 L-94,416 L-101,422 L-108,430 L-119,442 L-121,442 L-121,435 L-119,426 L-116,394 L-113,344 L-113,296 L-114,265 L-112,265 L-106,274 L-96,286 L-84,305 L-70,332 L-57,361 L-47,388 L-37,419 L-29,453 L-23,485 L-18,520 L-13,567 L-10,587 L-5,608 L-2,619 L5,639 L13,655 L20,667 L32,683 L46,697 L59,706 L75,714 L88,719 L108,723 L115,724 L142,724 L165,719 L178,714 L187,707 L195,698 L195,684 L193,667 L191,660 L189,647 L181,615 L177,604 L172,587 L165,563 L159,545 L150,517 L145,499 L142,490 L134,466 L131,458 L127,444 L123,434 L119,421 L105,378 L99,360 L91,336 L86,319 L80,303 L75,286 L69,268 L65,256 L59,241 L53,225 L46,204 L42,193 L41,190 L38,189 L31,189 L23,196 L5,214 L-2,222 L-4,222 L-4,175 L-3,125 L-2,30 L-1,6 Z " transform="translate(425,1203)" style="fill: #DFDFDF;"/><path d="M0,0 L5,1 L21,6 L40,13 L39,18 L34,29 L31,37 L28,42 L23,59 L19,69 L15,80 L9,101 L1,124 L-3,134 L-10,151 L-15,163 L-19,171 L-20,176 L-24,176 L-26,181 L-34,197 L-44,210 L-53,221 L-61,229 L-68,237 L-79,249 L-91,260 L-99,267 L-115,282 L-123,289 L-136,300 L-153,311 L-164,317 L-176,324 L-183,327 L-191,331 L-196,333 L-212,341 L-220,345 L-230,349 L-237,353 L-248,357 L-260,362 L-267,365 L-282,371 L-299,377 L-316,383 L-330,387 L-340,391 L-350,394 L-378,402 L-383,404 L-390,406 L-418,413 L-430,414 L-431,413 L-432,390 L-436,374 L-437,372 L-440,371 L-440,379 L-443,394 L-445,404 L-448,419 L-452,431 L-464,451 L-471,461 L-483,474 L-493,482 L-502,488 L-508,492 L-515,495 L-525,496 L-525,485 L-522,473 L-521,465 L-521,442 L-526,427 L-533,416 L-544,405 L-550,400 L-559,396 L-560,367 L-556,369 L-548,375 L-540,380 L-531,382 L-508,382 L-500,379 L-490,376 L-489,374 L-505,374 L-522,367 L-529,363 L-529,361 L-533,359 L-541,352 L-546,345 L-546,334 L-540,318 L-536,303 L-535,297 L-534,265 L-533,258 L-530,250 L-528,242 L-528,227 L-531,235 L-534,236 L-536,231 L-541,227 L-551,220 L-559,214 L-567,208 L-570,207 L-581,207 L-578,236 L-578,269 L-581,283 L-584,296 L-592,312 L-600,322 L-603,326 L-605,326 L-605,328 L-618,336 L-627,340 L-631,341 L-646,341 L-655,339 L-657,332 L-657,303 L-656,278 L-655,267 L-655,239 L-656,227 L-658,216 L-658,195 L-651,183 L-639,170 L-629,160 L-614,151 L-604,147 L-594,144 L-590,143 L-565,143 L-544,148 L-528,157 L-514,167 L-502,178 L-492,191 L-480,211 L-471,230 L-462,259 L-460,267 L-457,278 L-456,288 L-456,321 L-457,331 L-455,331 L-453,326 L-452,324 L-450,324 L-449,319 L-446,311 L-443,301 L-441,287 L-441,267 L-443,256 L-443,251 L-415,249 L-399,247 L-386,244 L-366,241 L-355,239 L-348,237 L-317,230 L-291,223 L-283,220 L-261,213 L-252,209 L-242,206 L-238,206 L-238,204 L-233,202 L-222,197 L-215,194 L-194,183 L-183,177 L-169,167 L-156,157 L-144,146 L-136,140 L-123,128 L-115,121 L-108,114 L-100,107 L-93,101 L-91,98 L-89,98 L-87,94 L-84,91 L-82,91 L-81,88 L-75,83 L-68,75 L-56,63 L-50,56 L-48,56 L-46,52 L-39,45 L-32,37 L-21,25 L-15,17 L-7,8 Z " transform="translate(1444,1994)" style="fill: #7B181A;"/><path d="M0,0 L1,2 L5,3 L12,12 L20,28 L27,45 L35,61 L40,75 L43,81 L49,97 L53,106 L58,119 L65,136 L69,146 L79,168 L80,175 L81,192 L82,247 L83,263 L83,426 L81,474 L77,532 L74,560 L70,588 L65,614 L60,632 L56,648 L52,658 L46,674 L39,690 L29,709 L25,718 L23,718 L21,724 L14,735 L4,750 L-10,767 L-17,775 L-35,793 L-41,798 L-55,809 L-60,813 L-71,820 L-74,823 L-79,825 L-92,833 L-114,847 L-125,855 L-137,864 L-150,874 L-163,884 L-179,896 L-191,905 L-202,914 L-216,926 L-229,936 L-243,947 L-254,956 L-264,965 L-275,974 L-286,984 L-297,993 L-312,1007 L-321,1015 L-332,1024 L-339,1031 L-347,1038 L-359,1049 L-374,1064 L-382,1071 L-394,1083 L-401,1091 L-409,1100 L-416,1111 L-428,1129 L-434,1140 L-443,1154 L-455,1175 L-460,1183 L-465,1192 L-470,1199 L-476,1210 L-485,1226 L-493,1239 L-505,1261 L-511,1271 L-517,1283 L-520,1288 L-522,1292 L-524,1292 L-526,1298 L-532,1309 L-544,1331 L-556,1353 L-559,1359 L-563,1356 L-566,1347 L-568,1347 L-575,1338 L-583,1330 L-590,1322 L-602,1310 L-613,1301 L-623,1294 L-637,1284 L-644,1280 L-643,1276 L-638,1267 L-633,1258 L-626,1241 L-624,1235 L-623,1227 L-623,1202 L-621,1205 L-619,1211 L-617,1211 L-606,1225 L-598,1239 L-592,1258 L-591,1263 L-591,1273 L-589,1273 L-587,1267 L-580,1256 L-572,1243 L-557,1218 L-543,1195 L-530,1174 L-516,1152 L-505,1135 L-493,1116 L-484,1103 L-477,1092 L-469,1080 L-462,1070 L-455,1059 L-447,1048 L-435,1034 L-409,1008 L-401,1001 L-389,990 L-381,983 L-367,971 L-353,959 L-343,950 L-332,941 L-318,929 L-308,920 L-297,911 L-282,898 L-269,887 L-258,878 L-241,864 L-227,853 L-212,840 L-199,829 L-188,820 L-172,807 L-160,798 L-146,787 L-134,778 L-123,769 L-113,759 L-104,748 L-96,738 L-88,727 L-83,719 L-74,705 L-67,692 L-62,683 L-53,667 L-46,652 L-36,627 L-27,602 L-20,578 L-17,566 L-15,556 L-11,540 L-7,517 L-2,489 L1,468 L6,424 L12,349 L13,332 L15,282 L15,224 L12,147 L8,89 L5,59 L3,43 L0,7 Z " transform="translate(1824,1978)" style="fill: #7D191A;"/><path d="M0,0 L5,1 L13,8 L20,16 L31,28 L40,39 L52,53 L61,64 L72,77 L82,90 L93,104 L105,118 L118,135 L128,148 L141,164 L154,182 L168,201 L172,208 L173,216 L168,220 L157,220 L141,218 L116,214 L112,214 L115,223 L127,258 L137,285 L147,314 L161,355 L176,398 L187,429 L198,459 L207,485 L221,523 L233,557 L250,603 L257,623 L270,656 L282,681 L284,686 L302,680 L320,670 L331,662 L346,648 L354,638 L362,624 L369,605 L373,583 L373,562 L370,543 L363,519 L355,499 L347,483 L339,468 L325,444 L312,422 L302,404 L293,387 L282,364 L277,353 L267,328 L255,292 L246,256 L240,224 L237,199 L237,151 L241,131 L244,126 L248,127 L258,138 L267,150 L279,165 L288,177 L304,198 L315,211 L324,222 L335,234 L342,242 L351,252 L366,268 L373,276 L375,280 L377,280 L384,288 L393,299 L394,301 L394,309 L390,312 L386,313 L374,313 L331,309 L338,323 L346,338 L352,350 L365,371 L377,389 L389,406 L397,417 L408,433 L416,445 L427,463 L436,479 L448,504 L455,524 L462,549 L466,570 L467,577 L467,607 L464,627 L458,648 L453,662 L443,681 L433,697 L423,710 L411,724 L404,731 L396,738 L383,749 L366,761 L349,771 L326,783 L329,794 L335,812 L345,816 L354,824 L359,834 L359,848 L355,859 L350,866 L348,871 L342,875 L337,879 L334,880 L335,888 L340,905 L344,918 L350,935 L357,954 L361,966 L365,976 L364,984 L356,993 L352,1002 L350,1015 L349,1034 L332,1033 L321,1032 L316,1023 L314,1016 L307,995 L304,988 L294,958 L288,941 L285,931 L283,926 L283,921 L276,906 L275,902 L254,902 L253,904 L253,902 L245,901 L231,894 L224,886 L220,878 L220,865 L223,855 L226,851 L225,844 L220,825 L211,826 L181,831 L167,833 L150,834 L127,834 L105,832 L86,828 L68,823 L53,817 L34,807 L18,796 L5,785 L-8,772 L-19,757 L-29,739 L-38,720 L-47,696 L-51,681 L-56,658 L-59,634 L-62,595 L-64,544 L-67,505 L-70,482 L-73,462 L-73,458 L-77,460 L-84,468 L-102,486 L-116,497 L-118,498 L-125,498 L-131,493 L-131,477 L-127,431 L-125,400 L-124,388 L-123,353 L-123,261 L-120,258 L-113,260 L-105,266 L-105,268 L-102,269 L-102,271 L-99,272 L-90,283 L-81,294 L-70,310 L-58,329 L-49,345 L-38,367 L-27,392 L-15,426 L-7,454 L0,481 L6,515 L15,582 L19,612 L25,639 L34,666 L45,684 L54,696 L67,709 L80,718 L90,724 L106,730 L120,733 L151,733 L164,731 L180,726 L189,720 L188,712 L179,675 L169,639 L162,618 L145,563 L139,544 L134,527 L124,496 L112,460 L94,405 L79,357 L66,319 L52,276 L42,244 L41,238 L36,243 L22,258 L13,267 L1,276 L-7,277 L-11,271 L-13,261 L-14,245 L-14,182 L-12,114 L-10,54 L-7,19 L-3,3 Z M9,28 L8,34 L7,58 L6,153 L5,203 L5,250 L9,248 L23,233 L38,218 L40,217 L47,217 L50,218 L52,223 L60,248 L65,262 L69,271 L75,286 L83,312 L88,328 L93,343 L96,351 L101,367 L105,380 L109,390 L114,406 L130,455 L135,471 L138,480 L142,493 L146,503 L151,518 L154,527 L162,554 L168,573 L176,598 L184,624 L189,641 L192,651 L196,668 L199,679 L201,692 L203,704 L204,712 L204,726 L195,736 L185,743 L171,748 L151,752 L124,752 L102,748 L88,744 L71,736 L54,724 L40,710 L29,695 L19,678 L11,659 L6,645 L0,618 L-3,601 L-6,578 L-10,541 L-16,502 L-20,481 L-29,443 L-44,399 L-56,371 L-72,338 L-83,320 L-91,309 L-101,297 L-103,293 L-105,293 L-104,324 L-104,372 L-107,422 L-110,454 L-112,463 L-112,470 L-108,468 L-97,456 L-88,446 L-77,439 L-75,438 L-67,438 L-62,443 L-58,453 L-52,478 L-48,504 L-46,521 L-44,556 L-43,566 L-42,592 L-39,630 L-35,656 L-29,685 L-22,704 L-19,710 L-17,716 L-12,728 L-4,743 L9,759 L23,773 L35,782 L50,792 L55,794 L59,795 L59,797 L70,801 L81,805 L104,810 L133,813 L159,813 L182,810 L207,806 L210,805 L222,805 L234,808 L235,814 L242,830 L245,841 L245,857 L242,868 L242,877 L247,880 L252,881 L267,881 L283,878 L302,873 L321,863 L332,855 L339,846 L341,840 L336,835 L324,829 L319,824 L315,816 L311,802 L306,782 L306,769 L325,759 L338,752 L355,742 L368,732 L379,723 L389,714 L405,698 L416,684 L425,669 L434,652 L438,642 L443,626 L446,608 L446,577 L442,554 L438,537 L435,527 L431,517 L428,507 L426,502 L424,502 L423,496 L418,487 L413,478 L399,455 L383,431 L370,412 L353,386 L348,378 L347,375 L345,375 L343,370 L336,357 L333,353 L325,337 L321,326 L317,317 L316,310 L314,305 L314,297 L320,292 L350,292 L363,295 L367,295 L365,290 L360,287 L336,263 L327,252 L316,241 L308,231 L299,221 L293,213 L286,205 L273,187 L261,170 L256,162 L253,163 L253,178 L256,208 L259,226 L263,249 L267,265 L273,286 L280,309 L285,321 L289,332 L296,347 L300,357 L308,373 L317,390 L324,404 L337,426 L351,450 L360,466 L372,489 L378,503 L384,520 L390,543 L393,566 L393,580 L392,592 L388,608 L382,626 L374,642 L364,656 L353,668 L342,677 L327,687 L306,697 L296,700 L288,701 L276,701 L267,686 L255,664 L249,650 L244,638 L238,622 L232,607 L227,593 L221,578 L216,564 L213,557 L206,535 L203,528 L199,516 L196,509 L189,489 L184,475 L179,462 L175,449 L171,439 L166,424 L158,402 L152,385 L146,367 L142,357 L131,324 L124,303 L117,285 L111,267 L107,257 L102,241 L92,210 L92,200 L95,197 L104,197 L122,201 L139,203 L146,203 L145,199 L139,192 L129,178 L122,169 L110,154 L101,142 L87,124 L76,111 L62,92 L48,74 L37,60 L25,46 L16,35 L11,28 Z " transform="translate(416,1175)" style="fill: #414141;"/><path d="M0,0 L3,0 L4,12 L4,64 L-1,110 L-5,129 L-8,145 L-20,194 L-26,214 L-34,237 L-38,247 L-46,268 L-49,275 L-60,299 L-72,322 L-84,342 L-98,361 L-109,372 L-117,379 L-127,388 L-141,399 L-146,401 L-146,403 L-159,412 L-169,418 L-174,421 L-184,426 L-192,430 L-200,433 L-208,435 L-229,440 L-239,441 L-265,441 L-283,438 L-299,432 L-310,426 L-320,417 L-327,409 L-331,401 L-333,395 L-334,388 L-334,365 L-332,332 L-326,304 L-319,280 L-309,255 L-307,243 L-298,226 L-287,210 L-273,191 L-264,181 L-257,173 L-231,147 L-221,139 L-208,129 L-185,113 L-172,105 L-156,97 L-148,92 L-129,81 L-113,73 L-105,68 L-100,66 L-84,56 L-66,45 L-55,38 L-40,28 L-19,14 L-2,2 Z " transform="translate(2354,1055)" style="fill: #D93630;"/><path d="M0,0 L6,1 L16,6 L32,19 L42,28 L78,64 L87,75 L98,86 L111,96 L117,100 L121,108 L126,125 L126,129 L122,127 L117,124 L107,124 L99,128 L91,136 L82,152 L77,167 L74,176 L71,196 L70,210 L79,216 L104,230 L115,237 L116,241 L108,252 L90,265 L77,275 L72,279 L72,289 L76,312 L82,337 L85,348 L92,367 L101,384 L108,393 L116,400 L120,402 L134,402 L144,398 L151,389 L153,385 L155,385 L154,395 L151,410 L149,422 L137,423 L127,426 L115,432 L105,440 L99,447 L93,458 L89,472 L88,484 L74,484 L61,480 L50,474 L37,463 L28,453 L16,437 L7,422 L-3,404 L-8,394 L-13,381 L-23,355 L-30,333 L-37,308 L-44,275 L-46,261 L-49,239 L-53,195 L-53,139 L-49,108 L-46,93 L-40,71 L-36,58 L-33,50 L-26,34 L-17,18 L-7,7 L-2,2 Z " transform="translate(1071,1015)" style="fill: #FDFDFD;"/><path d="M0,0 L5,1 L16,9 L21,13 L22,15 L23,28 L28,41 L37,51 L45,55 L49,56 L58,56 L65,53 L73,46 L77,45 L87,49 L88,50 L90,61 L94,71 L101,80 L111,86 L113,87 L126,87 L134,83 L139,79 L146,66 L156,66 L160,68 L168,81 L173,87 L180,91 L184,92 L195,92 L204,89 L210,85 L218,76 L221,68 L222,60 L233,57 L233,54 L231,53 L221,53 L218,44 L219,40 L233,33 L244,26 L252,21 L256,21 L256,19 L259,18 L273,18 L282,21 L293,28 L306,38 L320,49 L327,57 L331,74 L331,92 L328,98 L321,105 L314,108 L307,108 L291,104 L281,96 L266,87 L259,83 L262,88 L272,98 L279,106 L290,117 L291,119 L291,142 L288,159 L282,180 L275,196 L257,234 L251,244 L239,257 L229,267 L222,270 L208,275 L185,288 L172,296 L165,301 L161,299 L142,280 L135,272 L122,259 L115,251 L105,241 L98,233 L83,217 L72,205 L64,196 L56,186 L48,176 L37,162 L23,143 L13,130 L1,113 L-9,100 L-22,81 L-28,73 L-28,70 L-25,67 L-15,48 L-10,35 L-7,26 L-2,8 L-1,1 Z " transform="translate(873,3245)" style="fill: #D7352F;"/><path d="M0,0 L3,1 L6,7 L5,10 L0,13 L-15,25 L-23,32 L-38,45 L-54,60 L-73,79 L-79,87 L-80,89 L-72,86 L-59,76 L-49,67 L-38,58 L-30,51 L-12,38 L3,28 L8,25 L13,20 L21,31 L29,44 L42,60 L49,68 L71,90 L75,93 L80,94 L76,83 L73,79 L73,77 L85,78 L104,80 L124,81 L188,81 L223,80 L245,78 L274,74 L283,74 L288,86 L293,99 L296,116 L296,156 L295,160 L289,158 L281,154 L275,152 L260,152 L245,157 L235,164 L228,172 L218,186 L209,197 L198,209 L192,213 L189,213 L189,215 L185,218 L178,219 L103,219 L66,218 L59,217 L37,216 L11,213 L9,212 L-4,210 L-25,205 L-25,203 L-32,202 L-43,193 L-58,179 L-71,165 L-80,154 L-93,138 L-105,122 L-113,112 L-112,107 L-107,102 L-104,101 L-103,97 L-96,90 L-87,79 L-34,26 L-23,17 L-9,6 L-3,1 Z " transform="translate(1661,2970)" style="fill: #7D191A;"/><path d="M0,0 L23,0 L41,4 L58,11 L58,13 L63,15 L73,21 L86,31 L96,39 L110,51 L143,84 L152,95 L155,98 L155,100 L159,102 L171,114 L182,120 L190,122 L191,117 L193,108 L196,86 L197,84 L200,84 L205,98 L207,106 L207,127 L203,137 L197,143 L188,145 L197,176 L200,190 L208,226 L211,238 L215,267 L219,295 L222,337 L222,374 L219,419 L216,443 L213,459 L212,462 L227,463 L237,465 L245,449 L255,427 L259,419 L261,419 L261,437 L257,454 L252,465 L251,472 L258,476 L263,478 L273,486 L281,493 L283,495 L283,501 L277,499 L266,495 L243,488 L226,484 L197,484 L185,487 L175,493 L167,501 L163,511 L162,514 L162,527 L165,544 L173,560 L180,570 L187,578 L194,584 L209,594 L227,601 L251,607 L261,609 L268,612 L267,616 L261,621 L254,623 L232,623 L209,618 L197,613 L192,610 L187,608 L174,599 L166,592 L160,587 L147,569 L142,560 L137,544 L137,541 L120,541 L104,536 L89,527 L79,518 L71,511 L61,501 L53,491 L41,472 L32,456 L24,441 L19,428 L11,408 L7,398 L0,373 L-3,365 L-7,349 L-10,339 L-16,310 L-21,277 L-23,246 L-25,224 L-25,186 L-22,150 L-15,119 L-13,114 L-10,98 L-6,87 L0,71 L7,57 L11,50 L20,40 L30,32 L37,30 L38,28 L29,26 L12,21 L-17,21 L-28,25 L-38,32 L-46,42 L-53,55 L-55,56 L-55,46 L-52,38 L-46,27 L-41,22 L-32,13 L-21,6 Z M48,39 L42,44 L33,55 L26,65 L16,86 L13,96 L10,104 L4,124 L1,135 L-3,162 L-5,178 L-5,234 L-1,278 L2,300 L5,319 L11,347 L16,366 L18,372 L28,402 L38,427 L43,439 L53,458 L61,471 L70,484 L83,500 L94,510 L106,518 L117,522 L122,523 L136,523 L138,507 L142,495 L149,483 L156,476 L167,469 L175,465 L185,462 L197,461 L200,446 L202,434 L203,424 L201,424 L194,435 L186,440 L182,441 L168,441 L160,436 L153,429 L144,414 L136,396 L132,385 L127,364 L122,341 L120,328 L120,318 L130,310 L146,298 L157,290 L164,280 L163,276 L150,268 L123,253 L118,249 L120,228 L123,212 L126,202 L131,189 L139,175 L147,167 L155,163 L165,163 L171,167 L174,168 L173,161 L168,144 L165,139 L150,128 L138,117 L127,105 L120,97 L83,60 L69,49 L61,43 L52,39 Z " transform="translate(1023,976)" style="fill: #050504;"/><path d="M0,0 L12,0 L29,4 L45,9 L55,14 L71,22 L92,35 L110,48 L127,62 L137,71 L145,78 L153,86 L160,94 L170,104 L179,115 L191,129 L199,139 L207,149 L219,164 L233,183 L243,196 L255,211 L268,229 L276,239 L287,256 L299,273 L311,290 L323,306 L336,324 L348,340 L359,354 L373,371 L385,385 L394,395 L401,403 L417,419 L424,427 L432,435 L439,443 L449,453 L456,461 L471,476 L479,483 L486,490 L493,498 L508,514 L515,522 L526,535 L537,549 L550,567 L561,586 L568,601 L569,605 L569,620 L562,631 L550,643 L545,648 L534,658 L532,658 L530,648 L526,633 L517,614 L509,602 L499,589 L487,573 L479,565 L472,557 L464,549 L457,541 L448,533 L441,525 L416,500 L409,492 L407,491 L407,489 L403,487 L382,466 L375,458 L352,435 L345,427 L332,412 L321,398 L311,386 L304,377 L296,367 L284,351 L270,331 L256,312 L244,295 L230,276 L222,265 L210,248 L197,230 L187,217 L173,199 L163,186 L154,175 L145,164 L133,150 L126,143 L119,135 L108,123 L93,108 L82,99 L69,88 L54,77 L35,65 L14,54 L3,49 L-20,43 L-26,42 L-44,42 L-54,43 L-52,39 L-41,26 L-34,18 L-24,10 L-14,4 L-6,1 Z " transform="translate(550,3083)" style="fill: #FCFCFC;"/><path d="M0,0 L38,0 L65,4 L82,9 L109,20 L124,28 L138,37 L151,48 L179,76 L178,80 L170,93 L161,106 L151,119 L135,136 L123,148 L112,157 L100,167 L87,176 L72,185 L49,197 L31,205 L10,212 L-18,218 L-25,219 L-58,219 L-70,217 L-82,213 L-91,208 L-99,200 L-106,189 L-114,172 L-116,167 L-119,150 L-119,121 L-116,103 L-109,82 L-97,59 L-88,47 L-79,36 L-69,27 L-55,17 L-39,9 L-19,3 Z " transform="translate(1954,3391)" style="fill: #D9E0E3;"/><path d="M0,0 L21,0 L37,2 L47,5 L68,12 L87,22 L96,29 L104,36 L113,47 L114,51 L108,50 L99,45 L90,40 L81,37 L73,33 L55,28 L42,26 L23,26 L-2,30 L-20,35 L-22,37 L-7,42 L-7,44 L-2,45 L4,47 L4,49 L8,50 L19,56 L26,61 L29,62 L29,64 L33,66 L42,73 L49,80 L57,87 L66,97 L75,110 L83,123 L90,135 L93,140 L96,148 L102,161 L109,178 L114,192 L118,209 L121,222 L124,237 L128,263 L131,301 L131,351 L127,390 L124,410 L117,441 L113,457 L111,457 L110,464 L107,471 L104,483 L103,486 L101,486 L98,498 L93,511 L85,527 L82,534 L80,534 L78,540 L70,553 L75,552 L89,551 L112,551 L134,553 L147,557 L154,561 L154,563 L112,567 L88,571 L71,574 L55,578 L32,585 L22,589 L12,594 L-1,599 L-23,612 L-45,626 L-61,637 L-75,648 L-88,659 L-96,666 L-106,675 L-110,678 L-113,678 L-112,672 L-104,659 L-100,656 L-99,653 L-121,653 L-135,652 L-152,647 L-161,644 L-175,637 L-186,630 L-197,622 L-197,620 L-201,618 L-210,610 L-217,602 L-225,593 L-238,575 L-246,562 L-256,544 L-261,534 L-273,498 L-276,489 L-278,484 L-284,457 L-286,450 L-291,411 L-292,392 L-292,343 L-289,305 L-287,286 L-285,273 L-280,249 L-282,249 L-281,252 L-290,254 L-299,255 L-320,255 L-327,253 L-337,244 L-343,234 L-349,218 L-350,211 L-350,189 L-349,174 L-346,162 L-344,152 L-341,142 L-337,136 L-333,137 L-334,144 L-337,160 L-337,184 L-334,206 L-331,216 L-324,225 L-317,228 L-307,228 L-297,225 L-285,219 L-276,213 L-266,205 L-254,194 L-249,189 L-237,177 L-230,169 L-217,155 L-208,144 L-196,131 L-192,126 L-190,126 L-188,122 L-179,112 L-137,70 L-126,61 L-116,53 L-101,42 L-82,30 L-68,22 L-51,13 L-33,6 L-16,2 Z M-60,57 L-70,59 L-80,64 L-97,76 L-111,88 L-122,97 L-164,139 L-171,147 L-181,158 L-181,160 L-183,160 L-192,171 L-206,186 L-213,194 L-220,201 L-223,204 L-223,206 L-227,208 L-243,224 L-254,233 L-257,237 L-264,267 L-267,281 L-272,313 L-274,333 L-275,354 L-275,398 L-273,421 L-270,442 L-266,463 L-261,483 L-254,505 L-248,521 L-243,533 L-235,549 L-227,563 L-216,578 L-203,594 L-192,605 L-179,615 L-163,624 L-155,628 L-138,634 L-124,637 L-95,637 L-80,632 L-72,626 L-58,614 L-42,602 L-20,588 L-4,579 L14,571 L38,563 L43,558 L51,547 L65,522 L73,505 L80,487 L84,477 L93,449 L98,431 L105,394 L109,359 L109,301 L107,278 L100,234 L94,208 L84,178 L75,157 L65,138 L57,126 L50,116 L41,105 L25,89 L9,77 L-7,68 L-21,62 L-31,59 L-45,57 Z " transform="translate(1681,858)" style="fill: #060605;"/><path d="M0,0 L55,0 L61,1 L60,4 L55,5 L44,6 L23,15 L-2,28 L-29,44 L-43,52 L-54,59 L-61,63 L-76,73 L-96,87 L-108,96 L-121,106 L-135,117 L-152,131 L-166,143 L-176,152 L-179,153 L-179,155 L-187,162 L-203,179 L-212,190 L-218,197 L-226,208 L-238,224 L-252,245 L-261,259 L-270,275 L-273,281 L-282,298 L-287,309 L-294,326 L-296,328 L-301,345 L-303,349 L-306,365 L-308,374 L-312,400 L-315,426 L-315,469 L-313,499 L-307,535 L-302,557 L-293,591 L-283,621 L-276,641 L-266,671 L-260,692 L-255,708 L-248,744 L-246,763 L-244,774 L-242,796 L-242,848 L-245,876 L-247,883 L-248,892 L-250,897 L-252,908 L-256,906 L-262,898 L-270,887 L-279,877 L-282,873 L-282,866 L-278,840 L-277,832 L-277,776 L-280,761 L-285,727 L-286,726 L-290,706 L-295,688 L-298,676 L-302,663 L-305,654 L-310,639 L-314,626 L-320,608 L-328,582 L-331,573 L-336,556 L-340,538 L-344,522 L-347,503 L-349,486 L-350,468 L-350,445 L-346,405 L-343,390 L-337,364 L-333,349 L-325,327 L-320,313 L-316,304 L-307,287 L-304,280 L-294,263 L-292,263 L-290,256 L-281,242 L-272,230 L-265,221 L-258,212 L-252,205 L-246,197 L-241,192 L-230,180 L-223,172 L-213,162 L-205,155 L-190,141 L-182,132 L-182,129 L-193,123 L-209,115 L-214,112 L-228,107 L-240,102 L-261,96 L-286,90 L-286,87 L-276,81 L-252,68 L-235,59 L-221,52 L-214,49 L-206,47 L-206,45 L-194,41 L-185,37 L-175,33 L-154,27 L-136,21 L-115,16 L-97,12 L-76,8 L-33,2 Z " transform="translate(2720,1593)" style="fill: #DB3630;"/><path d="M0,0 L5,1 L21,6 L40,13 L39,18 L34,29 L31,37 L25,46 L20,52 L10,68 L1,80 L-13,99 L-26,115 L-37,128 L-48,141 L-59,154 L-70,166 L-82,179 L-89,187 L-129,227 L-137,234 L-146,242 L-161,253 L-179,263 L-199,274 L-209,279 L-224,286 L-236,291 L-247,296 L-261,301 L-273,306 L-282,309 L-291,313 L-299,315 L-314,320 L-324,323 L-332,326 L-340,329 L-353,332 L-361,335 L-381,340 L-402,344 L-412,345 L-423,345 L-432,342 L-439,336 L-442,328 L-443,322 L-443,301 L-441,287 L-441,267 L-443,256 L-443,251 L-415,249 L-399,247 L-386,244 L-366,241 L-355,239 L-348,237 L-317,230 L-291,223 L-283,220 L-261,213 L-252,209 L-242,206 L-238,206 L-238,204 L-233,202 L-222,197 L-215,194 L-194,183 L-183,177 L-169,167 L-156,157 L-144,146 L-136,140 L-123,128 L-115,121 L-108,114 L-100,107 L-93,101 L-91,98 L-89,98 L-87,94 L-84,91 L-82,91 L-81,88 L-75,83 L-68,75 L-56,63 L-50,56 L-48,56 L-46,52 L-39,45 L-32,37 L-21,25 L-15,17 L-7,8 Z " transform="translate(1444,1994)" style="fill: #D7352F;"/><path d="M0,0 L6,1 L16,5 L26,8 L35,12 L52,19 L68,26 L86,36 L101,46 L116,57 L132,69 L145,79 L156,88 L167,97 L177,106 L197,121 L207,130 L218,139 L219,142 L223,144 L239,159 L248,168 L255,174 L255,176 L257,176 L264,184 L275,195 L284,206 L294,221 L300,234 L305,247 L310,258 L315,271 L323,290 L332,313 L337,324 L345,344 L354,369 L362,392 L375,430 L384,461 L388,474 L388,485 L385,497 L377,513 L367,526 L354,544 L345,556 L334,570 L327,580 L320,590 L308,612 L303,630 L303,643 L326,652 L341,662 L354,674 L366,686 L376,699 L388,716 L396,731 L410,765 L418,783 L425,791 L435,796 L438,797 L456,797 L470,790 L480,781 L488,771 L496,754 L497,735 L498,735 L499,753 L500,757 L500,783 L499,797 L495,812 L490,824 L481,841 L477,848 L468,860 L460,870 L452,877 L441,884 L430,887 L407,887 L395,883 L385,878 L385,876 L381,874 L371,865 L364,857 L358,848 L345,820 L341,803 L340,797 L340,777 L342,765 L348,750 L353,744 L358,743 L365,751 L369,762 L373,800 L376,813 L381,822 L383,823 L381,800 L381,783 L386,784 L392,792 L394,795 L397,796 L395,786 L391,773 L380,745 L374,731 L362,711 L353,700 L345,689 L333,675 L327,667 L325,666 L326,679 L333,691 L334,698 L327,698 L317,694 L310,689 L313,694 L320,701 L327,709 L341,720 L346,723 L346,725 L337,730 L330,738 L326,745 L323,750 L318,748 L304,739 L302,738 L302,736 L297,734 L287,726 L287,724 L284,723 L275,710 L271,702 L267,689 L265,674 L265,640 L267,631 L272,615 L281,598 L288,588 L296,577 L308,563 L320,549 L327,541 L336,530 L346,519 L357,510 L361,505 L361,495 L359,486 L354,467 L347,445 L342,428 L335,408 L328,387 L324,377 L322,370 L317,358 L306,330 L303,321 L296,305 L292,295 L287,283 L283,274 L278,263 L276,255 L274,255 L267,238 L257,223 L253,217 L238,201 L231,193 L216,177 L207,167 L197,157 L190,149 L167,126 L156,117 L144,105 L133,96 L123,86 L114,79 L108,74 L103,69 L93,61 L84,55 L78,51 L77,49 L72,47 L72,45 L67,43 L65,42 L65,40 L61,39 L43,27 L39,24 L39,22 L35,20 L30,17 L18,10 L7,4 L0,1 Z " transform="translate(1831,1973)" style="fill: #7B181A;"/><path d="M0,0 L16,1 L45,5 L76,6 L85,7 L93,14 L93,16 L95,16 L102,24 L111,33 L127,45 L151,59 L160,64 L167,67 L171,69 L173,93 L174,120 L174,173 L171,234 L169,256 L165,286 L158,318 L150,346 L145,358 L140,372 L137,374 L130,365 L109,344 L92,332 L83,327 L83,325 L78,324 L62,315 L46,309 L43,308 L42,306 L42,289 L43,280 L44,279 L57,278 L66,274 L74,267 L77,262 L79,255 L79,239 L75,232 L68,225 L58,220 L49,219 L46,217 L44,202 L43,195 L56,190 L64,181 L66,176 L66,160 L60,149 L52,143 L46,140 L30,137 L27,129 L22,119 L20,110 L12,99 L3,87 L-6,73 L-5,4 L-3,1 Z " transform="translate(2002,3079)" style="fill: #D7352F;"/><path d="M0,0 L2,0 L2,56 L-1,82 L-7,114 L-13,137 L-23,166 L-30,183 L-39,200 L-45,212 L-57,231 L-69,247 L-81,261 L-88,269 L-90,269 L-91,272 L-102,281 L-112,290 L-126,300 L-140,309 L-153,317 L-166,325 L-182,333 L-195,338 L-219,338 L-228,335 L-237,326 L-241,318 L-243,311 L-243,300 L-236,290 L-235,289 L-234,248 L-231,236 L-226,224 L-221,210 L-215,200 L-208,187 L-206,187 L-204,182 L-201,179 L-198,173 L-188,161 L-179,150 L-163,133 L-154,124 L-143,115 L-134,107 L-120,96 L-118,96 L-118,94 L-114,91 L-112,91 L-112,89 L-101,81 L-91,73 L-81,66 L-71,59 L-60,51 L-46,41 L-33,30 L-17,15 L-2,1 Z " transform="translate(2324,1117)" style="fill: #79191A;"/><path d="M0,0 L6,0 L8,2 L-1,12 L-10,23 L-21,36 L-32,50 L-39,59 L-53,79 L-60,89 L-66,99 L-71,106 L-76,115 L-83,125 L-95,145 L-101,156 L-111,175 L-119,191 L-127,206 L-140,234 L-146,246 L-151,257 L-154,256 L-157,246 L-165,232 L-170,220 L-185,189 L-194,170 L-200,161 L-204,162 L-217,173 L-225,180 L-233,188 L-239,193 L-248,204 L-257,213 L-265,223 L-277,240 L-283,250 L-285,250 L-287,256 L-298,275 L-304,286 L-308,294 L-312,303 L-315,310 L-318,317 L-320,323 L-322,323 L-322,327 L-324,327 L-325,335 L-332,356 L-339,384 L-343,419 L-344,435 L-344,460 L-342,490 L-339,506 L-338,515 L-336,522 L-333,536 L-329,552 L-322,575 L-319,582 L-316,591 L-308,611 L-305,620 L-302,628 L-296,645 L-288,669 L-281,692 L-274,717 L-268,739 L-265,755 L-264,767 L-262,775 L-260,804 L-260,856 L-262,881 L-266,908 L-272,935 L-276,948 L-279,947 L-292,922 L-300,909 L-303,904 L-301,904 L-300,893 L-298,888 L-296,876 L-293,856 L-292,844 L-292,792 L-295,762 L-296,759 L-298,740 L-305,704 L-310,688 L-318,661 L-330,626 L-339,599 L-347,573 L-354,546 L-361,509 L-363,495 L-365,465 L-365,422 L-360,382 L-357,363 L-354,353 L-352,343 L-347,328 L-345,323 L-341,315 L-336,303 L-332,294 L-323,277 L-313,259 L-308,250 L-294,229 L-287,219 L-279,208 L-269,195 L-263,187 L-254,177 L-247,169 L-235,156 L-230,151 L-228,151 L-228,149 L-220,142 L-205,129 L-188,115 L-174,104 L-156,90 L-138,77 L-125,68 L-107,56 L-85,43 L-61,29 L-43,19 L-22,8 L-5,1 Z " transform="translate(2769,1597)" style="fill: #7B181A;"/><path d="M0,0 L4,1 L18,5 L28,8 L37,13 L43,21 L52,40 L59,60 L66,86 L72,117 L74,135 L77,156 L79,180 L79,291 L76,339 L73,370 L66,411 L60,435 L56,446 L52,459 L46,476 L37,497 L25,519 L17,531 L5,547 L-7,561 L-15,569 L-20,574 L-33,587 L-41,594 L-55,605 L-68,614 L-86,625 L-109,637 L-126,645 L-138,649 L-151,653 L-169,657 L-186,659 L-227,659 L-231,658 L-246,657 L-259,654 L-265,650 L-271,645 L-280,634 L-292,616 L-298,606 L-298,602 L-293,603 L-286,607 L-268,613 L-256,615 L-218,615 L-202,613 L-176,607 L-148,596 L-123,584 L-104,573 L-92,565 L-80,556 L-70,548 L-57,536 L-39,518 L-32,510 L-19,494 L-9,478 L0,462 L7,448 L13,432 L16,425 L22,404 L26,389 L32,362 L36,339 L40,300 L43,241 L43,181 L41,153 L37,118 L32,92 L26,67 L20,47 L13,28 L4,8 L0,2 Z " transform="translate(2150,3011)" style="fill: #BECACE;"/><path d="M0,0 L20,0 L29,3 L39,10 L49,20 L60,38 L66,52 L74,79 L78,96 L82,122 L83,139 L83,182 L82,202 L78,228 L70,260 L64,277 L53,296 L40,309 L31,314 L27,316 L21,317 L7,317 L-3,315 L-13,309 L-25,297 L-34,283 L-42,267 L-45,260 L-51,239 L-57,207 L-60,182 L-60,171 L-50,165 L-39,159 L-16,147 L6,134 L5,130 L-12,118 L-28,108 L-39,101 L-52,93 L-54,91 L-53,80 L-48,63 L-44,53 L-39,42 L-32,29 L-22,15 L-12,6 L-4,1 Z " transform="translate(1646,1074)" style="fill: #020202;"/><path d="M0,0 L3,0 L3,8 L-1,13 L-9,20 L-25,36 L-31,47 L-36,61 L-37,71 L-28,60 L-16,47 L-8,39 L6,29 L19,24 L29,22 L46,22 L59,24 L74,28 L90,36 L109,46 L121,55 L134,65 L136,69 L127,69 L102,63 L81,59 L50,59 L36,63 L20,71 L7,80 L-9,93 L-19,101 L-33,112 L-49,123 L-62,132 L-71,138 L-83,145 L-90,150 L-100,155 L-113,163 L-142,178 L-153,183 L-178,193 L-218,205 L-253,213 L-267,214 L-289,211 L-305,207 L-307,206 L-307,174 L-308,174 L-308,167 L-307,163 L-307,150 L-313,167 L-317,176 L-319,176 L-320,183 L-322,183 L-325,194 L-326,198 L-328,198 L-330,202 L-357,193 L-369,189 L-363,179 L-358,174 L-354,169 L-343,155 L-331,140 L-320,126 L-309,115 L-304,111 L-298,107 L-294,107 L-292,120 L-291,126 L-289,126 L-284,132 L-267,135 L-247,135 L-224,130 L-206,124 L-191,119 L-186,118 L-186,116 L-172,111 L-170,111 L-170,109 L-155,103 L-137,93 L-130,90 L-121,84 L-116,81 L-101,73 L-79,60 L-73,56 L-70,56 L-70,54 L-62,49 L-57,46 L-50,40 L-42,35 L-39,32 L-27,23 L-11,10 L-4,3 Z M-370,189 Z " transform="translate(1813,1805)" style="fill: #7A191A;"/><path d="M0,0 L19,0 L36,3 L55,9 L63,13 L73,17 L83,23 L87,25 L96,37 L106,53 L106,55 L108,55 L114,66 L114,69 L116,69 L124,86 L128,94 L134,110 L139,122 L143,133 L147,147 L152,167 L155,184 L157,194 L160,215 L162,244 L162,285 L159,327 L155,351 L148,382 L140,412 L129,445 L119,469 L116,476 L104,502 L97,514 L91,523 L90,526 L98,526 L98,527 L66,527 L47,528 L49,523 L57,509 L59,509 L60,504 L67,490 L72,477 L75,471 L78,461 L80,461 L82,452 L84,444 L87,436 L88,432 L90,432 L91,422 L95,408 L102,374 L106,336 L107,326 L107,276 L104,238 L99,205 L95,186 L91,173 L89,165 L82,145 L76,132 L72,123 L67,111 L62,104 L56,93 L47,79 L40,70 L28,57 L20,50 L13,44 L6,39 L6,37 L2,36 L-11,28 L-19,24 L-19,22 L-25,21 L-30,19 L-30,17 L-36,16 L-46,12 L-43,9 L-21,3 Z M91,25 L92,27 L88,26 Z " transform="translate(1704,883)" style="fill: #7B191A;"/><path d="M0,0 L3,0 L11,21 L20,47 L29,74 L33,84 L43,113 L53,141 L61,166 L64,173 L68,185 L73,197 L80,217 L86,234 L98,269 L105,290 L108,297 L115,317 L123,339 L139,381 L149,410 L159,439 L161,446 L161,453 L152,464 L144,469 L133,473 L117,473 L106,471 L100,464 L87,424 L84,415 L78,399 L75,389 L71,379 L67,365 L64,358 L54,328 L51,321 L42,294 L39,286 L33,268 L29,258 L24,243 L15,216 L6,189 L3,182 L-4,161 L-11,141 L-17,123 L-20,114 L-23,108 L-28,91 L-32,81 L-38,62 L-43,45 L-46,36 L-47,27 L-26,20 L-15,14 L-4,5 Z " transform="translate(919,2551)" style="fill: #462A2A;"/><path d="M0,0 L52,0 L115,6 L141,10 L154,12 L187,19 L202,24 L214,27 L217,29 L216,34 L206,34 L191,32 L158,28 L119,24 L94,23 L34,23 L-8,25 L-36,28 L-75,34 L-82,36 L-98,39 L-129,47 L-158,56 L-179,63 L-199,70 L-211,75 L-226,81 L-237,86 L-250,92 L-266,100 L-276,106 L-290,113 L-296,117 L-307,123 L-316,129 L-322,132 L-333,139 L-344,146 L-362,159 L-373,168 L-384,177 L-396,188 L-404,195 L-412,202 L-419,210 L-434,225 L-443,236 L-451,244 L-460,255 L-470,267 L-483,285 L-499,308 L-511,327 L-522,345 L-532,362 L-537,372 L-545,388 L-553,407 L-554,410 L-550,411 L-577,412 L-587,414 L-591,414 L-590,407 L-584,392 L-579,382 L-574,368 L-566,352 L-549,320 L-535,297 L-519,273 L-506,255 L-492,237 L-485,228 L-476,218 L-469,210 L-460,200 L-449,188 L-436,175 L-428,168 L-415,156 L-404,147 L-389,135 L-381,129 L-366,118 L-349,106 L-334,96 L-315,85 L-299,76 L-276,65 L-257,56 L-250,53 L-226,43 L-216,39 L-203,35 L-188,30 L-160,23 L-145,19 L-119,14 L-108,12 L-85,8 L-49,4 L-24,1 Z " transform="translate(1594,442)" style="fill: #F17468;"/><path d="M0,0 L28,0 L51,4 L60,7 L67,9 L81,14 L100,24 L118,34 L132,44 L143,53 L145,54 L145,56 L149,58 L166,75 L173,83 L181,92 L194,110 L199,119 L204,138 L205,147 L205,182 L201,206 L195,227 L190,238 L182,255 L178,254 L169,242 L156,224 L145,210 L134,196 L118,175 L108,162 L100,152 L88,138 L79,128 L64,113 L57,105 L39,87 L29,79 L19,71 L5,61 L-15,48 L-28,40 L-50,31 L-59,28 L-61,27 L-70,26 L-68,22 L-53,14 L-40,9 L-27,5 L-10,1 Z " transform="translate(655,3048)" style="fill: #FCFCFC;"/><path d="M0,0 L15,0 L33,3 L53,11 L69,20 L82,30 L92,39 L104,51 L114,64 L124,80 L133,96 L140,111 L151,141 L158,167 L163,194 L167,221 L169,244 L169,302 L165,337 L158,374 L151,399 L143,423 L139,433 L129,457 L117,480 L110,491 L101,504 L94,507 L82,511 L79,511 L89,493 L102,464 L110,444 L117,424 L123,403 L128,385 L133,364 L139,333 L141,317 L142,302 L142,240 L137,204 L134,188 L126,157 L118,135 L106,112 L96,97 L87,86 L75,74 L63,65 L47,57 L33,52 L26,51 L1,51 L-16,55 L-35,63 L-53,73 L-65,82 L-77,92 L-85,99 L-141,155 L-148,164 L-158,176 L-165,184 L-174,196 L-188,214 L-198,227 L-204,236 L-206,240 L-208,240 L-209,245 L-210,241 L-203,205 L-197,180 L-191,173 L-180,164 L-165,149 L-163,149 L-163,147 L-158,142 L-147,131 L-140,123 L-131,113 L-123,103 L-121,103 L-119,99 L-108,87 L-96,74 L-61,39 L-50,30 L-36,18 L-15,4 L-7,1 Z " transform="translate(1621,915)" style="fill: #ACBAC0;"/><path d="M0,0 L4,2 L14,12 L25,21 L38,32 L48,39 L65,49 L73,54 L81,57 L96,65 L109,70 L126,76 L144,79 L159,81 L209,81 L228,77 L238,74 L241,74 L243,82 L247,95 L257,116 L271,133 L278,141 L278,144 L255,151 L235,155 L225,156 L223,157 L210,159 L190,161 L156,161 L123,157 L89,150 L74,146 L67,144 L57,140 L50,138 L42,133 L32,129 L23,126 L23,124 L13,121 L4,115 L-5,111 L-9,109 L-9,107 L-14,106 L-20,102 L-41,88 L-40,84 L-31,74 L-23,60 L-19,51 L-15,44 L-9,28 L-2,9 Z " transform="translate(1910,2718)" style="fill: #7D191A;"/><path d="M0,0 L25,0 L46,5 L62,14 L76,24 L88,35 L98,48 L110,68 L119,87 L128,116 L130,124 L131,127 L132,142 L130,150 L125,160 L121,164 L117,166 L108,166 L102,162 L93,150 L89,143 L85,137 L83,132 L79,127 L69,109 L64,95 L64,82 L61,85 L59,92 L56,93 L54,88 L49,84 L39,77 L31,71 L23,65 L20,64 L9,64 L12,93 L12,126 L9,140 L6,153 L-2,169 L-10,179 L-13,183 L-15,183 L-15,185 L-28,193 L-37,197 L-41,198 L-56,198 L-65,196 L-67,189 L-67,160 L-66,135 L-65,124 L-65,96 L-66,84 L-68,73 L-68,52 L-61,40 L-49,27 L-39,17 L-24,8 L-14,4 L-4,1 Z " transform="translate(854,2137)" style="fill: #D73630;"/><path d="M0,0 L28,0 L40,3 L53,7 L74,17 L87,25 L98,33 L108,41 L107,43 L101,41 L98,39 L98,37 L92,35 L75,27 L65,24 L56,21 L38,17 L16,17 L3,20 L-8,26 L-21,37 L-31,49 L-41,64 L-47,77 L-51,87 L-55,105 L-58,126 L-58,184 L-56,198 L-53,208 L-49,223 L-47,234 L-45,244 L-39,300 L-32,346 L-26,381 L-19,419 L-18,422 L-15,447 L-14,442 L-10,444 L-5,465 L-2,476 L2,490 L3,498 L5,504 L13,535 L21,564 L34,599 L37,610 L37,618 L29,633 L23,649 L21,655 L18,666 L15,690 L15,717 L22,748 L34,777 L42,790 L50,801 L61,815 L73,828 L87,843 L92,848 L101,857 L109,864 L121,875 L135,886 L152,899 L169,910 L176,915 L184,919 L192,924 L220,940 L235,948 L250,957 L263,965 L276,971 L274,972 L265,970 L253,965 L242,960 L231,956 L216,949 L205,944 L201,941 L190,937 L186,934 L179,931 L173,927 L166,924 L149,914 L131,903 L116,893 L105,885 L92,875 L78,863 L67,853 L59,846 L43,830 L36,822 L24,806 L14,791 L6,777 L-4,754 L-9,737 L-12,719 L-12,686 L-7,661 L-4,652 L2,636 L9,622 L12,615 L18,606 L19,605 L19,598 L17,593 L11,568 L7,555 L3,545 L-2,528 L-11,501 L-18,476 L-26,447 L-31,423 L-37,397 L-40,386 L-43,371 L-47,346 L-49,329 L-50,327 L-55,292 L-58,261 L-61,245 L-66,228 L-72,208 L-77,187 L-81,166 L-82,160 L-82,119 L-78,93 L-72,73 L-64,55 L-53,37 L-44,26 L-37,19 L-25,10 L-11,3 Z " transform="translate(1021,872)" style="fill: #F36E64;"/><path d="M0,0 L2,0 L8,27 L14,51 L25,80 L30,91 L41,113 L49,126 L58,139 L70,153 L77,161 L85,169 L96,178 L106,186 L116,193 L137,206 L146,211 L153,214 L151,218 L140,230 L128,242 L121,250 L112,261 L101,275 L93,285 L85,296 L81,297 L76,293 L67,288 L54,277 L42,266 L31,252 L24,242 L23,238 L21,238 L6,209 L-4,185 L-10,165 L-16,136 L-18,118 L-20,83 L-20,45 L-18,34 L-10,18 L-2,3 Z " transform="translate(979,390)" style="fill: #D73630;"/><path d="M0,0 L1,4 L1,42 L3,77 L5,95 L11,124 L18,146 L29,172 L41,195 L41,197 L43,197 L50,209 L62,223 L69,231 L77,238 L90,248 L100,254 L104,257 L100,262 L99,265 L97,265 L95,270 L89,278 L84,287 L78,296 L66,316 L56,333 L44,358 L41,358 L28,338 L20,325 L7,302 L-4,278 L-10,265 L-17,244 L-22,222 L-24,214 L-27,190 L-29,170 L-29,126 L-25,88 L-23,79 L-21,66 L-18,55 L-16,44 L-14,38 L-8,20 L-2,4 Z M104,255 Z " transform="translate(959,431)" style="fill: #7A191A;"/><path d="M0,0 Z M1,1 L5,3 L15,12 L23,20 L31,30 L40,41 L49,54 L55,63 L65,80 L71,94 L75,109 L76,115 L76,128 L74,136 L68,148 L61,155 L50,161 L35,169 L30,172 L26,181 L22,193 L19,205 L17,211 L3,208 L-14,203 L-26,202 L-53,202 L-72,205 L-81,208 L-93,209 L-87,202 L-79,194 L-73,186 L-63,167 L-50,139 L-44,125 L-37,101 L-35,87 L-35,64 L-42,56 L-53,45 L-60,37 L-66,31 L-66,28 L-62,29 L-40,43 L-34,48 L-18,52 L-11,52 L-3,48 L4,40 L5,37 L5,19 Z " transform="translate(1198,3300)" style="fill: #761819;"/><path d="M0,0 L4,1 L11,8 L22,17 L39,30 L52,38 L62,44 L69,48 L74,50 L76,52 L82,54 L82,56 L88,56 L90,60 L93,76 L97,92 L99,101 L105,125 L111,149 L110,153 L106,147 L103,143 L103,141 L101,141 L94,130 L84,119 L77,110 L69,101 L61,94 L54,86 L40,71 L33,63 L27,58 L29,68 L31,74 L35,78 L43,90 L47,95 L50,100 L58,110 L62,115 L66,121 L70,124 L73,129 L79,137 L92,157 L96,162 L101,171 L107,179 L114,190 L122,203 L130,219 L135,231 L138,237 L146,260 L149,267 L152,276 L152,283 L147,291 L145,296 L141,301 L136,310 L132,308 L124,301 L117,293 L109,284 L100,273 L90,260 L80,245 L70,229 L62,215 L54,199 L49,190 L45,180 L39,167 L36,157 L32,148 L28,134 L24,123 L17,96 L10,68 L6,50 L1,15 Z " transform="translate(864,1189)" style="fill: #7B191A;"/><path d="M0,0 L5,5 L16,18 L25,29 L36,41 L44,51 L60,68 L67,76 L76,86 L84,93 L91,100 L98,106 L100,104 L112,120 L120,131 L123,134 L123,137 L105,136 L84,132 L81,131 L72,131 L69,134 L69,144 L83,187 L87,200 L90,207 L96,223 L102,240 L105,250 L109,260 L122,300 L126,310 L134,334 L140,350 L147,369 L151,382 L155,392 L159,405 L162,412 L168,429 L173,443 L179,458 L182,468 L186,478 L190,491 L195,503 L199,514 L205,529 L211,545 L216,560 L221,572 L226,584 L235,604 L248,627 L253,636 L242,635 L235,631 L225,620 L216,606 L206,588 L199,573 L184,533 L172,502 L160,472 L153,452 L141,418 L129,382 L116,345 L104,308 L97,286 L93,272 L81,236 L68,199 L58,172 L53,157 L39,118 L32,97 L19,62 L5,21 L0,8 Z M99,107 Z " transform="translate(439,1241)" style="fill: #B3B3B3;"/><path d="M0,0 L3,0 L2,11 L-6,23 L-15,34 L-26,46 L-33,54 L-37,56 L-38,59 L-46,66 L-67,87 L-66,91 L-63,97 L-59,120 L-59,152 L-65,181 L-68,190 L-69,197 L-74,198 L-75,198 L-74,185 L-73,171 L-72,166 L-72,135 L-78,102 L-78,98 L-84,102 L-91,109 L-102,118 L-116,130 L-122,135 L-131,146 L-146,161 L-145,167 L-134,177 L-133,182 L-131,182 L-126,198 L-125,207 L-125,234 L-130,254 L-138,270 L-150,287 L-174,311 L-177,311 L-176,302 L-172,295 L-168,291 L-164,285 L-159,270 L-159,255 L-166,243 L-173,237 L-182,234 L-194,234 L-200,236 L-208,241 L-215,253 L-219,262 L-222,271 L-225,285 L-229,284 L-230,283 L-230,242 L-227,233 L-222,218 L-217,207 L-205,185 L-203,185 L-201,180 L-198,177 L-195,171 L-185,159 L-176,148 L-160,131 L-151,122 L-140,113 L-131,105 L-117,94 L-115,94 L-115,92 L-111,89 L-109,89 L-109,87 L-98,79 L-88,71 L-78,64 L-68,57 L-57,49 L-43,39 L-30,28 L-14,13 Z " transform="translate(2321,1119)" style="fill: #060403;"/><path d="M0,0 L30,0 L52,6 L62,12 L70,18 L75,22 L79,27 L81,32 L81,38 L75,38 L68,34 L41,27 L29,25 L21,25 L18,29 L16,29 L14,33 L5,44 L-9,58 L-17,65 L-25,72 L-28,76 L-33,79 L-35,79 L-35,81 L-43,87 L-60,99 L-78,111 L-101,124 L-111,129 L-122,134 L-125,134 L-125,136 L-138,141 L-147,145 L-159,149 L-162,149 L-163,152 L-187,159 L-193,162 L-220,169 L-246,174 L-255,176 L-289,180 L-318,182 L-371,182 L-395,180 L-418,177 L-440,173 L-464,168 L-487,162 L-494,159 L-502,157 L-505,155 L-513,153 L-517,151 L-517,149 L-527,147 L-548,136 L-549,134 L-543,134 L-523,141 L-507,145 L-497,148 L-484,150 L-478,152 L-461,155 L-452,157 L-433,160 L-403,163 L-340,163 L-296,160 L-275,157 L-238,150 L-214,144 L-196,138 L-176,131 L-155,123 L-145,119 L-136,115 L-122,108 L-118,108 L-118,106 L-101,97 L-91,92 L-86,88 L-75,81 L-63,72 L-61,72 L-60,69 L-55,68 L-55,66 L-49,62 L-36,51 L-28,44 L-23,39 L-21,39 L-19,35 L-11,27 L-8,24 L-18,26 L-28,27 L-38,29 L-59,34 L-79,40 L-81,41 L-88,41 L-86,37 L-78,29 L-66,21 L-62,21 L-62,19 L-47,12 L-28,6 L-11,2 Z " transform="translate(1738,1528)" style="fill: #0B0706;"/><path d="M0,0 L9,0 L77,10 L92,12 L134,17 L146,19 L193,23 L223,26 L230,35 L242,52 L255,70 L263,81 L273,94 L273,96 L244,94 L185,87 L141,81 L84,72 L48,66 L43,64 L34,52 L24,39 L14,24 L6,11 L0,2 Z " transform="translate(542,3347)" style="fill: #97A4AA;"/><path d="M0,0 L5,2 L10,6 L17,12 L23,21 L27,32 L27,57 L22,70 L14,84 L6,92 L-1,100 L-8,107 L-25,119 L-32,124 L-42,128 L-53,133 L-70,137 L-82,139 L-105,139 L-128,134 L-134,131 L-134,129 L-138,128 L-148,120 L-155,111 L-161,101 L-165,92 L-168,80 L-168,74 L-138,73 L-123,72 L-102,68 L-81,62 L-72,58 L-62,54 L-51,48 L-46,46 L-36,39 L-25,30 L-11,16 L-3,4 Z " transform="translate(874,2406)" style="fill: #7C191A;"/><path d="M0,0 L34,0 L50,3 L66,7 L65,13 L57,33 L53,44 L44,65 L38,77 L35,85 L23,107 L14,122 L8,132 L-3,146 L-11,155 L-14,155 L-19,143 L-27,127 L-34,116 L-43,105 L-55,89 L-67,75 L-78,63 L-94,46 L-98,41 L-89,35 L-79,29 L-63,20 L-47,12 L-28,5 L-7,1 Z " transform="translate(1143,3514)" style="fill: #801A1B;"/><path d="M0,0 L8,0 L21,11 L32,20 L45,32 L59,44 L73,57 L84,66 L100,81 L115,95 L131,110 L143,122 L151,129 L179,157 L186,165 L202,182 L214,196 L223,206 L233,219 L241,228 L251,243 L259,256 L274,282 L287,306 L298,326 L306,342 L315,359 L326,382 L336,403 L351,437 L363,464 L368,476 L380,503 L391,530 L396,542 L404,549 L421,560 L434,569 L447,579 L460,591 L468,598 L468,600 L472,602 L481,612 L489,623 L499,636 L505,645 L517,664 L524,676 L531,693 L535,701 L540,716 L545,728 L548,743 L548,756 L547,758 L545,758 L542,746 L534,723 L525,703 L517,688 L511,677 L505,667 L494,653 L482,639 L473,628 L465,620 L458,612 L449,603 L435,592 L424,583 L411,574 L400,567 L389,560 L383,553 L377,539 L362,497 L351,469 L341,445 L329,420 L317,396 L309,380 L294,352 L284,335 L272,316 L262,301 L250,282 L235,257 L222,236 L213,224 L202,211 L193,200 L180,186 L173,178 L171,174 L167,172 L158,162 L150,154 L143,146 L127,129 L113,114 L104,104 L97,96 L87,85 L78,74 L71,67 L63,60 L53,51 L47,43 L41,39 L35,31 L24,22 L15,15 L7,8 L0,2 Z " transform="translate(1943,1875)" style="fill: #EE7569;"/><path d="M0,0 L13,1 L34,4 L93,12 L130,16 L158,19 L203,24 L210,30 L223,48 L234,63 L246,80 L253,89 L253,90 L240,90 L209,87 L138,79 L117,76 L62,68 L31,63 L26,55 L12,28 L3,8 L0,2 Z " transform="translate(502,3270)" style="fill: #97A4AB;"/><path d="M0,0 L18,0 L34,3 L50,8 L69,18 L83,28 L94,39 L101,50 L103,57 L103,75 L101,84 L93,103 L90,110 L86,116 L78,115 L51,114 L58,103 L63,92 L66,83 L66,78 L57,97 L48,114 L29,127 L17,135 L15,139 L11,138 L6,131 L4,124 L2,124 L-3,114 L-14,100 L-28,86 L-38,79 L-49,73 L-48,64 L-41,48 L-34,33 L-29,25 L-24,22 L-18,21 L12,21 L33,27 L47,36 L61,48 L68,56 L70,59 L72,65 L74,66 L74,51 L71,46 L62,35 L53,28 L48,25 L42,21 L29,15 L20,13 L-21,13 L-20,8 L-15,4 Z " transform="translate(1073,3131)" style="fill: #DB3C36;"/><path d="M0,0 L10,1 L60,9 L99,15 L126,19 L150,22 L226,29 L232,34 L239,44 L250,58 L261,72 L274,87 L277,91 L264,90 L217,85 L167,79 L126,74 L102,71 L61,65 L50,56 L33,39 L33,37 L31,37 L24,29 L15,19 L4,5 Z " transform="translate(597,3426)" style="fill: #93A0A6;"/><path d="M0,0 L1,0 L1,10 L0,22 L-1,36 L-3,41 L-7,63 L-9,76 L-14,99 L-19,122 L-23,138 L-28,163 L-33,183 L-39,201 L-46,220 L-52,233 L-57,245 L-73,277 L-80,290 L-94,314 L-100,325 L-106,336 L-114,352 L-116,352 L-117,358 L-126,375 L-130,385 L-135,395 L-139,406 L-144,417 L-149,431 L-153,441 L-163,471 L-167,485 L-172,511 L-177,536 L-180,569 L-180,611 L-179,629 L-174,656 L-170,672 L-167,682 L-164,692 L-162,697 L-163,700 L-167,695 L-175,679 L-182,664 L-188,646 L-193,629 L-197,608 L-199,593 L-199,552 L-198,534 L-194,506 L-187,475 L-180,449 L-174,432 L-169,420 L-160,398 L-155,387 L-146,368 L-136,349 L-121,321 L-108,297 L-99,281 L-91,265 L-75,236 L-67,220 L-59,203 L-54,191 L-51,182 L-47,171 L-44,162 L-38,141 L-33,123 L-26,99 L-21,79 L-17,65 L-15,53 L-12,44 L-8,27 L-2,3 L0,3 Z M-162,700 Z " transform="translate(1505,1982)" style="fill: #EE6E63;"/><path d="M0,0 L4,1 L7,5 L6,18 L9,23 L10,34 L10,67 L7,91 L1,117 L-5,136 L-9,150 L-15,165 L-21,181 L-27,195 L-30,201 L-32,201 L-33,206 L-39,218 L-41,218 L-43,224 L-56,244 L-65,256 L-74,267 L-86,281 L-108,303 L-116,310 L-129,322 L-140,331 L-149,340 L-156,351 L-161,364 L-165,384 L-166,412 L-174,411 L-179,408 L-182,397 L-184,384 L-184,351 L-179,326 L-175,318 L-161,305 L-147,294 L-132,280 L-118,266 L-111,258 L-100,245 L-91,234 L-79,219 L-66,201 L-56,184 L-46,167 L-34,142 L-29,130 L-23,114 L-19,104 L-14,84 L-10,69 L-6,48 L-2,19 L-1,1 Z " transform="translate(1936,239)" style="fill: #F07166;"/><path d="M0,0 L6,0 L9,8 L16,28 L16,32 L-16,33 L-25,37 L-26,39 L-12,39 L-10,40 L-10,42 L-26,49 L-36,56 L-37,58 L-14,53 L5,50 L25,49 L50,49 L50,52 L45,57 L39,67 L37,72 L37,104 L38,130 L34,133 L18,136 L1,136 L-20,133 L-39,128 L-55,121 L-67,113 L-72,111 L-70,122 L-71,128 L-76,125 L-84,111 L-85,108 L-85,88 L-83,78 L-80,68 L-74,56 L-64,43 L-53,32 L-37,21 L-27,14 L-14,6 L-6,2 Z " transform="translate(700,2179)" style="fill: #D63831;"/><path d="M0,0 L16,1 L53,6 L80,9 L92,11 L138,16 L174,20 L206,23 L214,25 L226,39 L235,49 L247,62 L261,76 L271,84 L271,86 L229,82 L176,76 L142,72 L100,67 L76,65 L69,63 L52,47 L42,38 L34,31 L21,20 L11,11 L0,2 Z " transform="translate(674,3506)" style="fill: #8E9BA1;"/><path d="M0,0 L22,1 L29,18 L48,71 L58,97 L81,162 L99,211 L109,239 L113,252 L124,287 L137,328 L154,377 L163,403 L167,421 L168,433 L160,433 L149,431 L143,424 L130,384 L127,375 L121,359 L118,349 L114,339 L110,325 L107,318 L97,288 L94,281 L85,254 L82,246 L76,228 L72,218 L67,203 L58,176 L49,149 L46,142 L39,121 L32,101 L26,83 L23,74 L20,68 L15,51 L11,41 L5,22 L0,5 Z " transform="translate(876,2591)" style="fill: #794F4C;"/><path d="M0,0 Z M-1,1 Z M-4,2 L-1,3 L-12,11 L-26,21 L-34,28 L-42,35 L-49,42 L-60,51 L-73,62 L-86,73 L-97,82 L-107,91 L-118,100 L-131,112 L-139,119 L-151,130 L-160,139 L-168,146 L-180,158 L-188,165 L-195,172 L-203,179 L-226,202 L-231,207 L-260,236 L-267,244 L-283,260 L-290,268 L-300,281 L-316,305 L-327,321 L-341,341 L-353,359 L-359,367 L-372,386 L-380,398 L-396,422 L-401,428 L-410,440 L-414,443 L-420,437 L-427,433 L-431,430 L-430,426 L-423,416 L-405,389 L-394,373 L-382,356 L-372,341 L-351,310 L-336,288 L-324,271 L-317,262 L-309,252 L-302,245 L-295,237 L-287,229 L-282,224 L-272,215 L-255,199 L-247,192 L-237,183 L-222,169 L-210,158 L-202,151 L-188,139 L-174,127 L-160,116 L-150,107 L-136,96 L-120,83 L-108,74 L-100,68 L-86,58 L-69,46 L-59,39 L-49,32 L-31,19 L-20,12 L-9,5 Z " transform="translate(1599,2706)" style="fill: #F2796A;"/><path d="M0,0 L2,1 L5,9 L13,23 L22,33 L29,41 L46,58 L63,71 L81,82 L89,85 L101,91 L112,95 L122,98 L129,101 L145,105 L164,107 L188,108 L231,108 L242,106 L239,109 L232,113 L224,116 L217,121 L209,125 L201,130 L196,132 L186,139 L177,144 L165,152 L157,156 L147,163 L132,172 L127,171 L118,166 L112,164 L104,160 L104,158 L94,155 L94,153 L89,152 L78,145 L61,131 L53,123 L45,116 L35,105 L28,97 L18,83 L15,79 L16,75 L13,65 L11,60 L8,50 L4,34 L0,11 Z M17,78 Z " transform="translate(1326,2604)" style="fill: #80181A;"/><path d="M0,0 L19,0 L32,3 L41,8 L52,15 L69,32 L76,43 L84,59 L90,77 L93,87 L94,88 L94,77 L90,57 L85,41 L79,27 L78,22 L91,20 L108,20 L115,38 L119,48 L122,54 L127,64 L137,81 L144,91 L152,102 L149,102 L140,101 L109,100 L71,95 L64,95 L61,96 L60,98 L59,167 L66,178 L76,192 L84,202 L86,207 L86,212 L82,207 L71,193 L63,183 L54,173 L47,165 L38,158 L39,142 L40,135 L40,94 L36,76 L31,62 L24,48 L13,36 L7,31 L-2,27 L-8,25 L-20,24 L-13,32 L-12,35 L-25,37 L-44,39 L-50,39 L-49,35 L-40,22 L-32,15 L-25,9 L-20,6 L-9,2 Z " transform="translate(1938,2985)" style="fill: #7D1A1B;"/><path d="M0,0 L13,1 L24,3 L67,8 L95,12 L131,16 L145,18 L158,19 L164,23 L171,31 L181,42 L190,53 L200,64 L209,75 L215,82 L215,84 L202,83 L168,79 L147,76 L113,72 L60,65 L29,61 L15,59 L8,38 L2,15 L0,5 Z " transform="translate(482,3199)" style="fill: #99A6AD;"/><path d="M0,0 L8,1 L21,5 L39,8 L72,8 L101,3 L105,2 L116,2 L122,11 L130,25 L142,48 L144,53 L144,60 L141,66 L135,71 L120,77 L102,81 L95,83 L76,85 L58,85 L38,81 L18,75 L12,74 L12,82 L9,81 L2,71 L-4,61 L-9,44 L-9,22 L-4,6 Z " transform="translate(647,2351)" style="fill: #D93C35;"/><path d="M0,0 L12,0 L18,2 L34,11 L47,21 L61,35 L70,46 L80,61 L87,71 L89,76 L78,78 L71,78 L69,65 L65,59 L50,47 L29,33 L21,30 L4,30 L-4,34 L-17,50 L-23,58 L-34,70 L-45,80 L-56,87 L-65,91 L-75,94 L-89,95 L-88,97 L-93,95 L-96,92 L-101,78 L-101,73 L-98,72 L-87,71 L-67,64 L-55,57 L-42,45 L-31,33 L-20,17 L-14,9 L-6,2 Z M7,36 L16,36 L28,40 L37,46 L48,52 L58,60 L65,67 L65,69 L67,69 L68,79 L58,83 L43,88 L27,96 L20,99 L4,107 L-3,110 L-43,109 L-58,107 L-65,105 L-78,103 L-88,99 L-88,97 L-65,97 L-56,95 L-42,87 L-28,75 L-20,67 L-11,56 L-1,43 Z " transform="translate(1924,3141)" style="fill: #821B1C;"/><path d="M0,0 L7,6 L14,13 L21,21 L36,37 L43,45 L54,58 L65,72 L78,90 L89,109 L96,124 L97,128 L97,143 L90,154 L78,166 L73,171 L62,181 L60,181 L58,171 L54,156 L45,137 L37,125 L27,112 L15,96 L7,88 L0,80 L-8,72 L-15,64 L-24,56 L-31,48 L-56,23 L-57,20 L-40,18 L-27,14 L-15,9 L-5,3 L0,2 Z " transform="translate(1022,3560)" style="fill: #B4C2C8;"/><path d="M0,0 L5,1 L10,3 L9,7 L-4,22 L-13,33 L-21,43 L-30,54 L-43,69 L-55,83 L-69,97 L-76,105 L-123,152 L-131,159 L-145,171 L-162,185 L-171,192 L-182,199 L-188,203 L-204,211 L-217,217 L-228,222 L-240,226 L-248,230 L-258,233 L-268,237 L-285,243 L-297,247 L-319,253 L-324,255 L-345,260 L-358,263 L-379,267 L-410,272 L-435,275 L-440,275 L-443,256 L-443,251 L-415,249 L-399,247 L-386,244 L-366,241 L-355,239 L-348,237 L-317,230 L-291,223 L-283,220 L-261,213 L-252,209 L-242,206 L-238,206 L-238,204 L-233,202 L-222,197 L-215,194 L-194,183 L-183,177 L-169,167 L-156,157 L-144,146 L-136,140 L-123,128 L-115,121 L-108,114 L-100,107 L-93,101 L-91,98 L-89,98 L-87,94 L-84,91 L-82,91 L-81,88 L-75,83 L-68,75 L-56,63 L-50,56 L-48,56 L-46,52 L-39,45 L-32,37 L-21,25 L-15,17 L-7,8 Z " transform="translate(1444,1994)" style="fill: #ED6D63;"/><path d="M0,0 L28,0 L40,3 L53,7 L74,17 L87,25 L98,33 L108,41 L107,43 L101,41 L98,39 L98,37 L92,35 L75,27 L65,24 L56,21 L38,17 L16,17 L3,20 L-8,26 L-21,37 L-31,49 L-41,64 L-47,77 L-51,87 L-55,105 L-58,126 L-58,184 L-56,198 L-53,208 L-49,223 L-47,234 L-45,244 L-39,300 L-32,346 L-26,381 L-19,419 L-20,425 L-22,424 L-25,412 L-30,401 L-33,390 L-32,398 L-29,409 L-30,416 L-32,416 L-36,401 L-40,386 L-43,371 L-47,346 L-49,329 L-50,327 L-55,292 L-58,261 L-61,245 L-66,228 L-72,208 L-77,187 L-81,166 L-82,160 L-82,119 L-78,93 L-72,73 L-64,55 L-53,37 L-44,26 L-37,19 L-25,10 L-11,3 Z " transform="translate(1021,872)" style="fill: #F37065;"/><path d="M0,0 L19,1 L32,3 L86,9 L158,17 L198,21 L206,28 L213,36 L230,53 L235,57 L242,65 L247,69 L247,71 L228,69 L158,60 L124,55 L74,48 L60,45 L50,44 L43,37 L33,29 L21,18 L10,9 L3,3 L0,2 Z " transform="translate(761,3584)" style="fill: #8E9AA1;"/><path d="M0,0 L4,1 L11,8 L22,17 L39,30 L52,38 L62,44 L69,48 L74,50 L76,52 L82,54 L82,56 L88,56 L90,60 L93,76 L97,92 L99,101 L105,125 L111,149 L110,153 L106,147 L103,143 L103,141 L101,141 L94,130 L84,119 L77,110 L69,101 L61,94 L54,86 L40,71 L33,63 L27,58 L31,83 L37,112 L43,135 L50,156 L62,185 L70,201 L80,220 L86,232 L95,246 L101,257 L113,280 L117,286 L117,290 L113,288 L103,277 L93,264 L80,245 L70,229 L62,215 L54,199 L49,190 L45,180 L39,167 L36,157 L32,148 L28,134 L24,123 L17,96 L10,68 L6,50 L1,15 Z " transform="translate(864,1189)" style="fill: #D73630;"/><path d="M0,0 L2,3 L8,24 L12,37 L18,54 L25,73 L29,85 L33,95 L32,103 L24,112 L20,121 L18,134 L17,153 L0,152 L-11,151 L-16,142 L-18,135 L-25,114 L-28,107 L-38,77 L-44,60 L-47,50 L-49,45 L-49,40 L-56,25 L-57,21 L-39,16 L-34,15 L-33,13 L-28,12 L-24,13 L-13,9 L-8,5 Z " transform="translate(748,2056)" style="fill: #452A2A;"/><path d="M0,0 L5,1 L16,8 L24,11 L39,19 L52,24 L69,30 L87,33 L102,35 L152,35 L171,31 L181,28 L184,28 L186,36 L190,49 L200,70 L202,73 L202,77 L183,80 L157,82 L117,82 L98,79 L75,72 L56,63 L46,56 L36,48 L25,37 L14,23 L4,6 L0,1 Z " transform="translate(1967,2764)" style="fill: #D83630;"/><path d="M0,0 L8,0 L17,12 L24,17 L39,23 L48,26 L56,27 L68,27 L86,24 L97,21 L101,19 L99,33 L96,39 L93,46 L84,60 L77,67 L71,74 L60,81 L51,87 L40,91 L30,96 L20,99 L14,102 L-14,107 L-20,108 L-52,108 L-72,104 L-83,99 L-87,98 L-87,96 L-94,94 L-103,88 L-107,83 L-105,83 L-105,75 L-96,76 L-74,82 L-59,85 L-41,85 L-17,82 L-11,80 L3,77 L20,70 L25,64 L26,61 L26,54 L14,29 L6,15 L-1,4 L-7,3 L-3,1 Z " transform="translate(764,2350)" style="fill: #7B191A;"/><path d="M0,0 L2,1 L3,7 L4,24 L5,26 L5,63 L3,77 L-1,92 L-3,92 L-3,98 L-6,103 L-9,110 L-15,122 L-23,133 L-27,137 L-29,137 L-29,139 L-42,149 L-51,155 L-64,159 L-70,161 L-96,161 L-95,154 L-91,144 L-87,131 L-85,118 L-85,93 L-87,72 L-91,59 L-95,49 L-94,47 L-85,59 L-79,69 L-71,73 L-66,74 L-46,74 L-36,70 L-27,64 L-16,54 L-7,41 L-2,32 L0,25 Z " transform="translate(2427,2664)" style="fill: #7B181A;"/><path d="M0,0 L4,0 L3,6 L-6,15 L-20,26 L-40,41 L-63,53 L-83,60 L-97,63 L-106,64 L-128,64 L-142,62 L-159,57 L-170,52 L-184,45 L-197,36 L-209,24 L-217,14 L-217,10 L-205,10 L-167,17 L-143,19 L-98,19 L-71,16 L-64,16 L-64,14 L-29,8 L-12,4 Z " transform="translate(1542,1746)" style="fill: #78191A;"/><path d="M0,0 L26,0 L45,3 L64,7 L77,11 L89,17 L105,25 L116,31 L131,41 L144,52 L147,56 L142,54 L138,50 L127,42 L110,35 L89,28 L68,23 L44,20 L8,20 L-5,21 L-22,24 L-42,30 L-56,35 L-78,47 L-93,56 L-111,69 L-121,77 L-134,88 L-145,97 L-152,104 L-160,111 L-162,111 L-162,113 L-168,118 L-175,126 L-184,136 L-191,144 L-193,144 L-195,148 L-217,170 L-222,176 L-224,176 L-221,165 L-217,156 L-211,146 L-205,135 L-197,124 L-188,111 L-182,103 L-170,92 L-154,76 L-146,69 L-136,60 L-127,53 L-116,45 L-101,35 L-83,25 L-66,17 L-57,13 L-48,10 L-36,6 L-10,1 Z M147,56 Z " transform="translate(1657,744)" style="fill: #EF7267;"/><path d="M0,0 L36,2 L56,6 L71,11 L79,15 L84,23 L90,36 L96,53 L105,80 L108,92 L113,124 L113,129 L108,128 L92,119 L81,112 L81,110 L76,108 L70,104 L53,88 L42,76 L31,61 L18,40 L8,22 L3,10 L0,4 Z " transform="translate(2057,3004)" style="fill: #821B1C;"/><path d="M0,0 L29,0 L55,8 L54,11 L45,14 L32,26 L26,34 L20,47 L14,63 L11,71 L8,78 L4,97 L0,113 L-4,130 L-7,166 L-8,166 L-9,154 L-14,149 L-23,136 L-29,121 L-34,107 L-36,96 L-40,79 L-40,46 L-39,29 L-38,29 L-37,35 L-28,19 L-19,9 L-7,2 Z " transform="translate(1006,996)" style="fill: #7B1A1B;"/><path d="M0,0 L9,1 L50,7 L87,12 L102,14 L129,18 L154,21 L191,25 L201,36 L213,52 L221,64 L221,67 L193,64 L156,58 L134,55 L99,50 L64,46 L54,41 L42,33 L28,23 L13,11 L0,2 Z " transform="translate(829,3643)" style="fill: #909CA2;"/><path d="M0,0 L2,0 L2,5 L0,5 L-2,10 L-14,23 L-33,42 L-53,57 L-69,68 L-81,76 L-98,86 L-113,95 L-118,98 L-120,98 L-120,100 L-132,106 L-143,113 L-153,119 L-164,125 L-181,136 L-197,148 L-216,162 L-232,175 L-246,187 L-255,196 L-263,203 L-274,214 L-283,225 L-294,237 L-306,251 L-307,247 L-305,239 L-295,221 L-284,206 L-272,190 L-259,175 L-231,147 L-221,139 L-208,129 L-185,113 L-172,105 L-156,97 L-148,92 L-129,81 L-113,73 L-105,68 L-100,66 L-84,56 L-66,45 L-55,38 L-40,28 L-19,14 L-2,2 Z " transform="translate(2354,1055)" style="fill: #EE6B61;"/><path d="M0,0 L37,0 L58,4 L80,10 L90,14 L106,22 L116,28 L127,36 L140,47 L154,61 L165,77 L169,83 L169,86 L164,86 L151,72 L140,63 L126,53 L110,44 L94,36 L89,33 L75,28 L60,24 L38,20 L31,19 L5,19 L-16,22 L-34,26 L-46,30 L-54,33 L-72,41 L-91,51 L-108,62 L-118,69 L-132,80 L-145,92 L-157,103 L-173,119 L-180,125 L-184,124 L-183,119 L-173,105 L-164,94 L-153,82 L-144,72 L-135,63 L-125,55 L-112,45 L-94,33 L-75,22 L-51,12 L-39,8 L-21,3 Z " transform="translate(1652,726)" style="fill: #0D0807;"/><path d="M0,0 L9,0 L18,10 L20,14 L20,24 L15,34 L6,42 L-3,47 L-12,53 L-15,55 L-24,57 L-42,61 L-51,62 L-76,62 L-98,61 L-108,49 L-115,34 L-117,26 L-117,17 L-97,17 L-88,18 L-61,18 L-41,14 L-17,6 Z " transform="translate(824,2464)" style="fill: #D83933;"/><path d="M0,0 L9,0 L17,2 L17,49 L15,62 L15,101 L-6,107 L-22,110 L-33,111 L-60,111 L-78,108 L-90,104 L-103,98 L-108,96 L-122,82 L-125,77 L-121,77 L-122,62 L-116,64 L-103,72 L-89,78 L-70,83 L-49,86 L-32,86 L-16,83 L-13,81 L-14,55 L-14,23 L-7,9 L-2,3 L0,3 Z " transform="translate(750,2228)" style="fill: #78191A;"/><path d="M0,0 L18,0 L34,3 L50,8 L69,18 L83,28 L94,39 L101,50 L103,57 L103,75 L101,84 L93,103 L90,110 L86,116 L78,115 L51,114 L58,103 L63,92 L66,83 L66,78 L57,97 L48,114 L29,127 L17,135 L15,139 L11,138 L6,131 L4,124 L2,124 L-3,113 L5,113 L17,110 L29,103 L39,94 L50,80 L58,72 L65,64 L68,62 L70,59 L72,65 L74,66 L74,51 L71,46 L62,35 L53,28 L48,25 L42,21 L29,15 L20,13 L-21,13 L-20,8 L-15,4 Z " transform="translate(1073,3131)" style="fill: #821C1C;"/><path d="M0,0 L2,0 L8,27 L14,51 L25,80 L30,91 L41,113 L49,126 L58,139 L70,153 L77,161 L85,169 L96,178 L106,186 L116,193 L137,206 L146,211 L153,214 L151,218 L140,229 L136,230 L126,226 L108,216 L96,207 L83,197 L70,186 L55,172 L46,161 L39,152 L30,137 L22,122 L11,96 L2,70 L-6,39 L-8,29 L-8,14 L-2,3 Z " transform="translate(979,390)" style="fill: #F27369;"/><path d="M0,0 L5,4 L12,12 L25,24 L36,33 L49,43 L68,55 L85,64 L101,70 L128,76 L173,76 L194,74 L225,73 L241,75 L246,77 L251,82 L253,99 L252,96 L240,93 L228,93 L214,96 L195,99 L177,101 L151,101 L122,98 L99,93 L86,88 L77,85 L77,83 L73,82 L65,78 L53,70 L39,59 L24,44 L13,29 L5,14 L1,4 Z " transform="translate(398,1887)" style="fill: #B2B2B3;"/><path d="M0,0 L35,0 L34,2 L16,6 L7,8 L-14,11 L-45,16 L-69,21 L-95,27 L-125,35 L-147,42 L-154,45 L-166,49 L-177,54 L-213,69 L-231,77 L-252,87 L-267,92 L-279,92 L-292,89 L-292,86 L-282,80 L-258,67 L-241,58 L-227,51 L-220,48 L-212,46 L-212,44 L-200,40 L-191,36 L-181,32 L-160,26 L-142,20 L-121,15 L-103,11 L-82,7 L-39,1 Z " transform="translate(2726,1594)" style="fill: #F17166;"/><path d="M0,0 L7,6 L19,14 L32,20 L47,24 L55,25 L90,25 L102,23 L118,22 L139,19 L149,19 L156,22 L155,29 L148,42 L141,51 L134,59 L119,69 L107,74 L105,76 L104,73 L96,70 L80,67 L61,62 L46,56 L34,48 L25,41 L17,33 L13,27 L6,16 L0,2 Z " transform="translate(1186,1515)" style="fill: #791819;"/><path d="M0,0 L12,0 L28,3 L48,10 L71,23 L83,31 L102,45 L118,58 L122,60 L122,62 L111,61 L96,59 L70,56 L67,55 L43,53 L15,49 L-4,47 L-27,44 L-27,20 L-25,15 L-18,7 L-11,3 L-6,1 Z " transform="translate(507,3144)" style="fill: #96A4AA;"/><path d="M0,0 L9,0 L15,3 L18,13 L24,36 L26,49 L26,78 L24,90 L18,113 L8,130 L-3,142 L-10,149 L-17,152 L-30,156 L-45,156 L-55,153 L-63,150 L-63,148 L-69,146 L-76,136 L-77,132 L-67,134 L-52,134 L-44,131 L-30,124 L-26,122 L-26,120 L-21,115 L-14,106 L-8,94 L-5,87 L-1,70 L0,63 L0,30 L-2,10 L-2,1 Z M15,4 L17,5 Z M17,5 Z " transform="translate(865,2200)" style="fill: #781819;"/><path d="M0,0 L28,0 L40,3 L49,9 L52,15 L51,25 L47,31 L42,35 L27,42 L7,49 L-8,53 L-26,56 L-54,56 L-63,52 L-68,47 L-69,45 L-69,37 L-65,29 L-55,20 L-34,9 L-17,3 Z " transform="translate(1757,1442)" style="fill: #F27367;"/><path d="M0,0 L12,0 L18,2 L34,11 L47,21 L61,35 L70,46 L80,61 L87,71 L89,76 L78,78 L71,78 L69,65 L65,59 L50,47 L29,33 L21,30 L4,30 L-4,34 L-17,50 L-23,58 L-34,70 L-45,80 L-56,87 L-65,91 L-72,93 L-92,94 L-97,88 L-100,82 L-101,73 L-98,72 L-87,71 L-67,64 L-55,57 L-42,45 L-31,33 L-20,17 L-14,9 L-6,2 Z " transform="translate(1924,3141)" style="fill: #982322;"/><path d="M0,0 L6,1 L16,6 L32,19 L42,28 L78,64 L87,75 L98,86 L111,96 L117,100 L121,108 L126,125 L126,129 L122,127 L117,124 L107,124 L103,125 L89,110 L85,104 L73,91 L64,81 L48,66 L36,57 L25,49 L11,42 L6,41 L-5,41 L-13,43 L-19,47 L-26,54 L-31,61 L-34,66 L-37,69 L-39,73 L-40,71 L-36,58 L-33,50 L-26,34 L-17,18 L-7,7 L-2,2 Z " transform="translate(1071,1015)" style="fill: #ABB8BF;"/><path d="M0,0 L17,0 L41,3 L54,6 L62,10 L65,14 L65,25 L59,34 L57,35 L45,35 L21,30 L-15,30 L-32,32 L-61,40 L-73,45 L-77,47 L-82,47 L-85,43 L-86,40 L-86,33 L-82,25 L-73,18 L-55,10 L-34,4 L-16,1 Z " transform="translate(2001,3307)" style="fill: #EEF3F4;"/><path d="M0,0 L32,0 L40,4 L44,9 L45,12 L45,20 L39,27 L36,29 L9,30 L-15,33 L-31,37 L-48,43 L-64,51 L-78,59 L-85,63 L-90,62 L-94,57 L-95,54 L-95,46 L-91,40 L-87,37 L-72,31 L-53,21 L-28,9 L-4,1 Z " transform="translate(2008,3232)" style="fill: #EAF0F2;"/><path d="M0,0 L10,0 L20,4 L33,13 L47,25 L58,38 L69,57 L73,65 L80,85 L81,90 L81,100 L77,106 L71,109 L61,109 L55,105 L50,95 L46,81 L41,69 L33,53 L23,39 L16,29 L6,12 L-1,3 Z " transform="translate(996,3212)" style="fill: #F6F7F7;"/><path d="M0,0 L21,3 L46,7 L76,11 L111,16 L136,19 L145,21 L147,24 L148,29 L148,46 L146,48 L120,48 L87,41 L77,38 L69,35 L54,29 L33,20 L7,6 L0,2 Z " transform="translate(912,3702)" style="fill: #94A0A6;"/><path d="M0,0 L2,4 L4,15 L4,51 L0,69 L-4,78 L-12,94 L-22,107 L-27,113 L-39,121 L-40,122 L-45,122 L-46,93 L-47,80 L-52,61 L-59,45 L-61,41 L-57,43 L-52,49 L-49,57 L-41,57 L-32,54 L-22,47 L-15,38 L-7,22 L-1,6 Z " transform="translate(2491,2625)" style="fill: #7C1A1B;"/><path d="M0,0 L9,0 L24,8 L34,17 L41,25 L50,40 L55,52 L59,65 L60,71 L60,99 L57,110 L54,113 L49,115 L41,114 L33,107 L30,102 L28,64 L22,43 L15,29 L5,15 L0,4 Z " transform="translate(946,3202)" style="fill: #F1F5F6;"/><path d="M0,0 L5,2 L12,8 L18,11 L27,18 L30,19 L30,21 L32,21 L32,23 L35,23 L35,25 L41,27 L57,35 L68,39 L77,41 L86,44 L100,47 L118,49 L156,49 L177,47 L190,44 L194,44 L193,48 L183,54 L175,58 L163,62 L151,65 L132,67 L109,67 L87,65 L67,58 L57,54 L49,50 L34,41 L24,33 L14,24 L5,14 L1,7 Z " transform="translate(1787,691)" style="fill: #090505;"/><path d="M0,0 L17,0 L24,18 L28,28 L31,34 L36,44 L46,61 L53,71 L61,82 L58,82 L49,81 L18,80 L2,78 L5,77 L2,52 L-1,37 L-6,21 L-12,7 L-13,2 Z " transform="translate(2029,3005)" style="fill: #7F1A1B;"/><path d="M0,0 L9,0 L19,7 L28,16 L35,27 L40,38 L43,47 L44,55 L44,80 L41,96 L37,107 L36,108 L25,108 L17,102 L13,95 L12,46 L8,24 L4,11 L0,3 Z " transform="translate(896,3177)" style="fill: #F1F5F6;"/><path d="M0,0 L25,0 L46,5 L62,14 L76,24 L79,29 L66,26 L56,21 L39,16 L33,15 L8,15 L-6,19 L-11,22 L-18,25 L-29,33 L-43,45 L-52,53 L-57,58 L-58,59 L-58,109 L-60,125 L-62,131 L-64,131 L-65,96 L-66,84 L-68,73 L-68,52 L-61,40 L-49,27 L-39,17 L-24,8 L-14,4 L-4,1 Z M79,29 Z " transform="translate(854,2137)" style="fill: #EB6A60;"/><path d="M0,0 L7,0 L4,3 L-11,11 L-18,14 L-41,23 L-51,26 L-58,28 L-63,29 L-103,29 L-117,27 L-126,24 L-142,20 L-142,18 L-147,17 L-159,12 L-169,5 L-173,1 L-160,1 L-135,6 L-104,9 L-59,9 L-32,6 L-25,6 L-25,4 Z " transform="translate(1503,1756)" style="fill: #0C0605;"/><path d="M0,0 L2,1 L-19,22 L-28,34 L-38,47 L-47,58 L-58,72 L-67,83 L-77,98 L-84,107 L-88,114 L-101,137 L-110,154 L-114,161 L-118,168 L-126,186 L-128,193 L-130,193 L-133,203 L-139,223 L-141,228 L-144,241 L-147,250 L-150,261 L-153,278 L-155,293 L-156,311 L-158,321 L-159,321 L-159,290 L-156,263 L-153,248 L-147,222 L-143,207 L-135,185 L-130,171 L-126,162 L-117,145 L-114,138 L-104,121 L-102,121 L-100,114 L-91,100 L-82,88 L-75,79 L-68,70 L-62,63 L-56,55 L-51,50 L-40,38 L-33,30 L-23,20 L-15,13 L-4,3 Z " transform="translate(2530,1735)" style="fill: #EF7065;"/><path d="M0,0 L9,2 L26,4 L37,33 L50,70 L55,85 L55,92 L48,98 L41,101 L36,101 L33,96 L29,88 L24,72 L21,65 L11,35 L5,18 L2,8 L0,3 Z " transform="translate(699,2098)" style="fill: #754C4A;"/><path d="M0,0 L29,0 L41,3 L41,5 L47,6 L68,20 L71,24 L69,26 L56,26 L45,25 L15,25 L1,28 L-13,35 L-26,44 L-32,47 L-34,47 L-36,44 L-36,31 L-32,20 L-25,12 L-18,6 L-9,2 Z " transform="translate(1220,1459)" style="fill: #EF6F64;"/><path d="M0,0 L2,3 L8,19 L15,30 L20,35 L23,39 L24,89 L27,127 L28,142 L34,180 L40,209 L45,224 L48,236 L51,245 L50,249 L48,244 L46,244 L42,235 L37,214 L35,205 L33,204 L32,209 L30,208 L27,183 L22,158 L18,137 L12,100 L6,61 L0,5 Z " transform="translate(975,1111)" style="fill: #C7322D;"/><path d="M0,0 L44,0 L51,1 L49,20 L48,27 L34,25 L12,22 L-24,22 L-45,25 L-53,27 L-58,27 L-57,22 L-55,16 L-46,11 L-29,5 L-13,2 Z " transform="translate(1981,3354)" style="fill: #D9332F;"/><path d="M0,0 L4,1 L11,8 L22,17 L39,30 L52,38 L62,44 L69,48 L74,50 L76,52 L82,54 L82,56 L88,56 L90,60 L93,76 L93,83 L88,79 L69,67 L57,57 L40,45 L24,33 L15,25 L16,47 L19,85 L23,103 L22,107 L19,104 L12,76 L6,50 L1,15 Z " transform="translate(864,1189)" style="fill: #ED695F;"/><path d="M0,0 L2,0 L1,9 L-2,24 L-4,37 L-8,79 L-9,75 L-13,74 L-18,69 L-25,60 L-33,44 L-38,31 L-44,9 L-44,5 L-17,5 L-3,3 L0,2 Z " transform="translate(1399,1107)" style="fill: #791A1B;"/><path d="M0,0 L6,0 L8,4 L8,10 L-2,16 L-25,28 L-38,37 L-42,39 L-44,43 L-55,55 L-61,65 L-66,78 L-70,93 L-70,110 L-75,108 L-84,100 L-84,89 L-83,78 L-80,68 L-74,56 L-64,43 L-53,32 L-37,21 L-27,14 L-14,6 L-6,2 Z " transform="translate(700,2179)" style="fill: #EE6C62;"/><path d="M0,0 L18,0 L34,3 L50,8 L69,18 L83,28 L94,39 L95,45 L92,51 L85,56 L76,57 L75,50 L65,39 L60,34 L53,28 L48,25 L42,21 L29,15 L20,13 L-21,13 L-20,8 L-15,4 Z " transform="translate(1073,3131)" style="fill: #E6564E;"/><path d="M0,0 L2,1 L-1,4 L-6,16 L-12,27 L-15,30 L-14,32 L-34,39 L-50,47 L-64,55 L-71,59 L-76,58 L-80,53 L-81,50 L-81,42 L-77,36 L-73,33 L-58,27 L-39,17 L-14,5 Z " transform="translate(1994,3236)" style="fill: #B7C3C8;"/><path d="M0,0 L27,0 L44,3 L67,8 L82,13 L93,18 L110,27 L113,28 L113,30 L118,32 L115,33 L91,25 L74,21 L65,19 L49,16 L29,14 L-22,14 L-50,18 L-61,20 L-57,16 L-43,9 L-30,5 L-21,3 Z " transform="translate(1556,2181)" style="fill: #140807;"/></svg>